<svg height="135.85939" viewBox="0 0 37.698152 35.94613" width="142.4812" xmlns="http://www.w3.org/2000/svg"><g transform="matrix(.35277778 0 0 -.35277778 -184.371102 181.1081)"><path d="m565.71471 510.37728c-4.64519-1.03269-9.24023-2.47077-13.54835-4.63919.0985-3.80412.34519-7.44944.84375-11.15183-1.67308-1.07189-3.43243-1.99128-4.99512-3.2461-1.58778-1.2215-3.20877-2.39028-4.64648-3.81886-2.87224 1.89975-5.91218 3.68581-9.04396 5.26173-3.37579-3.63306-6.53283-7.55493-9.11132-11.94288 1.93991-3.13815 3.96567-6.0796 6.15234-8.87108h.0615l.001-34.18506c0-15.67893 19.88895-23.21461 44.6001-23.30127h.0292.0309c24.71117.0867 44.59422 7.62234 44.59422 23.30127l.006 34.18506h.0601c2.18715 2.79148 4.21152 5.73293 6.15234 8.87108-2.5776 4.38795-5.73551 8.30982-9.11132 11.94288-3.13083-1.57592-6.1717-3.36198-9.04393-5.26173-1.43728 1.42858-3.05643 2.59736-4.6465 3.81886-1.56223 1.25482-3.32229 2.17421-4.99218 3.2461.49717 3.70239.74186 7.34771.84082 11.15183-4.30858 2.16842-8.90232 3.6065-13.54981 4.63919-1.85553-3.11857-3.55243-6.49545-5.03028-9.79688-1.75246.29282-3.51343.40088-5.27635.42185v.003c-.0113 0-.0227-.003-.0337-.003-.0113 0-.0227.003-.0337.003v-.003c-1.76613-.0198-3.52494-.12897-5.27783-.42185-1.47696 3.30143-3.1735 6.67831-5.03175 9.79688z" stroke="#000" stroke-linejoin="round" stroke-width="6"/><path d="m0 0v-47.514-6.035-5.492c.108-.001.216-.005.323-.015l36.196-3.49c1.896-.183 3.382-1.709 3.514-3.609l1.116-15.978 31.574-2.253 2.175 14.747c.282 1.912 1.922 3.329 3.856 3.329h38.188c1.933 0 3.573-1.417 3.855-3.329l2.175-14.747 31.575 2.253 1.115 15.978c.133 1.9 1.618 3.425 3.514 3.609l36.182 3.49c.107.01.214.014.322.015v4.711l.015.005v54.325h.134c4.795 6.12 9.232 12.569 13.487 19.449-5.651 9.62-12.575 18.217-19.976 26.182-6.864-3.455-13.531-7.369-19.828-11.534-3.151 3.132-6.7 5.694-10.186 8.372-3.425 2.751-7.285 4.768-10.946 7.118 1.09 8.117 1.629 16.108 1.846 24.448-9.446 4.754-19.519 7.906-29.708 10.17-4.068-6.837-7.788-14.241-11.028-21.479-3.842.642-7.702.88-11.567.926v.006c-.027 0-.052-.006-.075-.006-.024 0-.049.006-.073.006v-.006c-3.872-.046-7.729-.284-11.572-.926-3.238 7.238-6.956 14.642-11.03 21.479-10.184-2.264-20.258-5.416-29.703-10.17.216-8.34.755-16.331 1.848-24.448-3.668-2.35-7.523-4.367-10.949-7.118-3.481-2.678-7.036-5.24-10.188-8.372-6.297 4.165-12.962 8.079-19.828 11.534-7.401-7.965-14.321-16.562-19.974-26.182 4.253-6.88 8.693-13.329 13.487-19.449z" fill="#fdcc08" transform="matrix(.45612755 0 0 .45612755 531.4276 471.96878)"/><path d="m0 0-1.121-16.063c-.135-1.936-1.675-3.477-3.611-3.616l-38.555-2.751c-.094-.007-.188-.01-.281-.01-1.916 0-3.569 1.406-3.852 3.33l-2.211 14.994h-31.459l-2.211-14.994c-.297-2.018-2.101-3.469-4.133-3.32l-38.555 2.751c-1.936.139-3.476 1.68-3.611 3.616l-1.121 16.063-32.547 3.138c.015-3.498.06-7.33.06-8.093 0-34.374 43.605-50.896 97.781-51.086h.066.067c54.176.19 97.766 16.712 97.766 51.086 0 .777.047 4.593.063 8.093z" fill="#fdcc08" transform="matrix(.45612755 0 0 .45612755 605.87139 440.04499)"/><path d="m0 0c0-12.052-9.765-21.815-21.813-21.815-12.042 0-21.81 9.763-21.81 21.815 0 12.044 9.768 21.802 21.81 21.802 12.048 0 21.813-9.758 21.813-21.802" fill="#fff" transform="matrix(.45612755 0 0 .45612755 562.60408 461.03691)"/><path d="m0 0c0-7.994-6.479-14.473-14.479-14.473-7.996 0-14.479 6.479-14.479 14.473s6.483 14.479 14.479 14.479c8 0 14.479-6.485 14.479-14.479" fill="#414042" transform="matrix(.45612755 0 0 .45612755 560.21004 460.44675)"/><path d="m0 0c-3.878 0-7.021 2.858-7.021 6.381v20.081c0 3.52 3.143 6.381 7.021 6.381s7.028-2.861 7.028-6.381v-20.081c0-3.523-3.15-6.381-7.028-6.381" fill="#fff" transform="matrix(.45612755 0 0 .45612755 576.05781 450.18125)"/><path d="m0 0c0-12.052 9.765-21.815 21.815-21.815 12.041 0 21.808 9.763 21.808 21.815 0 12.044-9.767 21.802-21.808 21.802-12.05 0-21.815-9.758-21.815-21.802" fill="#fff" transform="matrix(.45612755 0 0 .45612755 589.51321 461.03691)"/><path d="m0 0c0-7.994 6.477-14.473 14.471-14.473 8.002 0 14.479 6.479 14.479 14.473s-6.477 14.479-14.479 14.479c-7.994 0-14.471-6.485-14.471-14.479" fill="#414042" transform="matrix(.45612755 0 0 .45612755 591.90786 460.44675)"/><g transform="matrix(1.1779788 0 0 1.1779788 -102.52623 -84.740325)"><path d="m7.6861034.00229052c0-16.29897652-13.2060655-29.50233652-29.4996324-29.50233652-16.285452 0-29.495574 13.20336-29.495574 29.50233652 0 16.28815648 13.210122 29.48475548 29.495574 29.48475548 16.2935669 0 29.4996324-13.196599 29.4996324-29.48475548" fill="#414042" transform="matrix(.45612755 0 0 .45612755 586.00737 481.87792)"/><g fill="#fff"><path d="m576.05771 481.87908c-6.69627 0-2.64836-.00051-12.12801-.00051 0 6.69738 5.43174 12.12357 12.12801 12.12357"/><path d="m576.05854 481.87445c6.69627 0 2.64836.00051 12.12801.00051 0-6.69738-5.43174-12.12357-12.12801-12.12357"/></g></g></g></svg>