<svg clip-rule="evenodd" fill-rule="evenodd" stroke-linecap="round" stroke-linejoin="round" stroke-miterlimit="1.5" viewBox="0 0 143 136" xmlns="http://www.w3.org/2000/svg" xmlns:xlink="http://www.w3.org/1999/xlink"><clipPath id="a"><path clip-rule="nonzero" d="m123.21 95.467v-2.503l.008-.002s.167-15.788 0-21.206c-.039-1.261-.527-6.866-2.539-11.302-3.623-7.986-6.764-12.297-10.346-15.605-5.867-5.42-12.673-11.428-32.907-14.065-2.038-.265-4.241-.336-6.302-.336-2.056 0-4.026.099-6.068.336-23.631 2.749-29.204 10.022-33.29 14.065-4.007 3.966-6.239 7.25-10.072 15.605-2.404 5.242-2.401 10.42-2.429 11.302-.148 4.623 0 17.588 0 17.588v6.123l-.032 4.148c.008 1.859.032 3.894.032 4.299 0 18.26 23.163 27.036 51.941 27.137h.071c28.778-.101 51.933-8.877 51.933-27.137 0-.412.025-2.439.034-4.299z"/></clipPath><clipPath id="b"><path clip-rule="nonzero" d="m57.673 61.981c0 7.863-6.371 14.232-14.232 14.232-7.856 0-14.229-6.369-14.229-14.232 0-7.858 6.373-14.224 14.229-14.224 7.861 0 14.232 6.366 14.232 14.224"/></clipPath><clipPath id="c"><path clip-rule="nonzero" d="m84.569 61.981c0 7.863 6.371 14.232 14.233 14.232 7.856 0 14.228-6.369 14.228-14.232 0-7.858-6.372-14.224-14.228-14.224-7.862 0-14.233 6.366-14.233 14.224"/></clipPath><path d="m41.745 89.846s-8.176 10.095-24.648-10.304c-16.791-20.794-16.088-25.656-2.005-26.67 2.701-.195-7.32-21.788-6.048-30.88 1.452-10.377 15.195-4.109 19.78 1.308 5.346 6.317 25.471 30.811 20.309 47.963-5.163 17.152-7.388 18.583-7.388 18.583z" fill="#8dbfdf" stroke="#354755" stroke-width="3.85"/><path d="m100.896 89.846s8.176 10.095 24.648-10.304c16.791-20.794 16.088-25.656 2.005-26.67-2.7-.195 7.321-21.788 6.048-30.88-1.452-10.377-15.195-4.109-19.779 1.308-5.347 6.317-25.472 30.811-20.309 47.963 5.162 17.152 7.387 18.583 7.387 18.583z" fill="#8dbfdf" stroke="#354755" stroke-width="3.85"/><path d="m123.212 89.536h-103.947v14.38c0 18.259 23.163 27.035 51.941 27.136h.07c28.778-.101 51.934-8.877 51.934-27.136z" fill="#30271e" fill-rule="nonzero"/><path d="m123.21 95.467v-2.503l.008-.002s.167-15.788 0-21.206c-.039-1.261-.527-6.866-2.539-11.302-3.623-7.986-6.764-12.297-10.346-15.605-5.867-5.42-12.673-11.428-32.907-14.065-2.038-.265-4.241-.336-6.302-.336-2.056 0-4.026.099-6.068.336-23.631 2.749-29.204 10.022-33.29 14.065-4.007 3.966-6.239 7.25-10.072 15.605-2.404 5.242-2.401 10.42-2.429 11.302-.148 4.623 0 17.588 0 17.588v6.123l-.032 4.148c.008 1.859.032 3.894.032 4.299 0 18.26 23.163 27.036 51.941 27.137h.071c28.778-.101 51.933-8.877 51.933-27.137 0-.412.025-2.439.034-4.299z" fill="none" stroke="#c6a567" stroke-linecap="butt" stroke-miterlimit="2" stroke-width="8.78"/><path d="m123.21 95.467v-2.503l.008-.002s.167-15.788 0-21.206c-.039-1.261-.527-6.866-2.539-11.302-3.623-7.986-6.764-12.297-10.346-15.605-5.867-5.42-12.673-11.428-32.907-14.065-2.038-.265-4.241-.336-6.302-.336-2.056 0-4.026.099-6.068.336-23.631 2.749-29.204 10.022-33.29 14.065-4.007 3.966-6.239 7.25-10.072 15.605-2.404 5.242-2.401 10.42-2.429 11.302-.148 4.623 0 17.588 0 17.588v6.123l-.032 4.148c.008 1.859.032 3.894.032 4.299 0 18.26 23.163 27.036 51.941 27.137h.071c28.778-.101 51.933-8.877 51.933-27.137 0-.412.025-2.439.034-4.299z" fill="#e8a023" fill-rule="nonzero"/><g clip-path="url(#a)" fill="#30271e"><path d="m126.55 110.57s-26.475 7.658-54.205 7.658-54.965-7.658-54.965-7.658v-10.457s27.23 7.658 54.965 7.658 54.205-7.658 54.205-7.658z"/><path d="m126.55 126.873s-26.475 7.658-54.205 7.658-54.965-7.658-54.965-7.658v-10.457s27.23 7.658 54.965 7.658 54.205-7.658 54.205-7.658z"/><path d="m95.754 83.434c-.155 2.091-.596 8.533-.596 8.533-.072 1.028-.89 1.847-1.918 1.92l-16.751 1.196c-.05.003-.1.005-.149.005-1.018 0-1.896-.747-2.046-1.769l-1.175-6.342h-3.881l-1.174 6.342c-.158 1.072-1.116 1.843-2.196 1.764l-16.751-1.196c-1.028-.073-1.846-.892-1.918-1.92 0 0-.501-6.438-.595-8.533-.187-4.146 1.226-3.738 2.141-3.954.73-.172 1.797.908 1.867 1.917l.593 8.488 13.043.931 1.155-6.211c.15-1.016 1.021-1.768 2.048-1.768h7.456c1.026 0 1.898.752 2.047 1.768l1.156 6.211 13.043-.931.592-8.488c.071-1.009 1.124-2.019 1.867-1.917.668.092 2.452-.254 2.142 3.954z" fill-rule="nonzero"/></g><path d="m71.241 74.624c-2.06 0-3.73-1.518-3.73-3.39v-10.667c0-1.869 1.67-3.389 3.73-3.389s3.733 1.52 3.733 3.389v10.667c0 1.872-1.673 3.39-3.733 3.39" fill="#fff" fill-rule="nonzero"/><path d="m57.673 61.981c0 7.863-6.371 14.232-14.232 14.232-7.856 0-14.229-6.369-14.229-14.232 0-7.858 6.373-14.224 14.229-14.224 7.861 0 14.232 6.366 14.232 14.224" fill="#fff" fill-rule="nonzero"/><g clip-path="url(#b)"><path d="m54.646 62.327c0 5.124-4.153 9.277-9.281 9.277-5.125 0-9.28-4.153-9.28-9.277s4.155-9.281 9.28-9.281c5.128 0 9.281 4.157 9.281 9.281" fill="#414042" fill-rule="nonzero"/></g><path d="m84.569 61.981c0 7.863 6.371 14.232 14.233 14.232 7.856 0 14.228-6.369 14.228-14.232 0-7.858-6.372-14.224-14.228-14.224-7.862 0-14.233 6.366-14.233 14.224" fill="#fff" fill-rule="nonzero"/><g clip-path="url(#c)"><path d="m87.596 62.327c0 5.124 4.152 9.277 9.276 9.277 5.129 0 9.28-4.153 9.28-9.277s-4.151-9.281-9.28-9.281c-5.124 0-9.276 4.157-9.276 9.281" fill="#414042" fill-rule="nonzero"/></g><g fill="none" stroke="#8e8e8e" stroke-width="7.37"><path d="m57.688 40.501s4.74-18.977-1.529-29.539c-2.929-4.934-10.507-10.447-18.719-4.318-8.212 6.13-5.555 14.342 4.469 18.931 10.023 4.589 8.769-6.28 5.146-10.144"/><path d="m84.628 40.501s-5.827-18.977.442-29.539c2.928-4.934 10.506-10.447 18.718-4.318 8.212 6.13 5.555 14.342-4.468 18.931-10.024 4.589-8.77-6.28-5.147-10.144"/></g></svg>