<svg height="165.67685" viewBox="0 0 48.441089 43.835333" width="183.08443" xmlns="http://www.w3.org/2000/svg"><g stroke-width=".320312" transform="matrix(.16091166 0 0 -.16091166 29.366862 25.87001)"><path d="m-163.268 3.138c.015-3.498.06-7.33.06-8.093 0-34.374 43.605-50.896 97.781-51.086h.066.067c54.176.19 97.766 16.712 97.766 51.086 0 .777.047 4.593.063 8.093 0 32.244123-195.803 43.743373-195.803 0zm.0597 66.850735v-47.514-6.035l-.0597-13.3017355c0-27.3324335 195.802996-26.9576925 195.802996 0l-.06327 12.5207355.015.005v54.325h.134c4.795 6.12-1.353033 38.569125 2.901967 45.449125-7.398044.0626-4.764684.0272-9.390967.18187-6.864-3.455-13.531-7.369-19.8279997-11.534-3.151 3.132-6.69999995 5.694-10.186 8.372-3.425 2.751-7.2850003 4.768-10.9460003 7.118 1.09 8.117-18.61616 26.1792-18.39916 34.5192-8.572477-.48714-3.333149-.10985-9.411456-.5178-4.068-6.837-5.829566-11.46849-9.069566-18.70649-2.943321.1931-4.518183-.0616-6.90375-.026-1.785952-.0902-2.552417.0404-6.166683-.54948l-2.316921-.26833c-3.872-.046-10.862516 16.18872-11.580816 19.8341-8.324722.11659-2.305282.10851-9.358648.33277-10.184-2.264-20.257996-5.416-29.702996-10.17.216-8.34 2.03959-16.43377 3.13259-24.55077-3.668-2.35-15.74438-10.43027-17.93717-14.41448-3.481-2.678-9.44045 7.066-14.76429 10.46614-8.04102-.0497-1.15611-.0898-9.54813.0951-7.401-7.965-14.321-16.561995-19.974-26.181995 4.253-6.88 8.693-13.329 13.487-19.449z" fill="#275171"/><path d="m-153.81341 3.138c.015-3.498.06-7.33.06-8.093 0-34.374 43.605-50.896 97.781003-51.086h.066.067c54.1759993.19 97.766 16.712 97.766 51.086 0 .777.047 4.593.063 8.093 0 32.244123-195.803003 43.743373-195.803003 0zm.0597 66.850735v-47.514-6.035l-.0597-13.3017355c0-27.3324335 195.802999-26.9576925 195.802999 0l-.06327 12.5207355.015.005v54.325h.134c4.795 6.12 9.232 12.569 13.487 19.449-5.651 9.62-12.575 18.216995-19.976 26.181995-6.864-3.455-13.531-7.369-19.828-11.534-3.151 3.132-6.7000004 5.694-10.1860004 8.372-3.425 2.751-7.2850003 4.768-10.9460003 7.118 1.09 8.117 1.629 16.108 1.846 24.448-9.4459993 4.754-19.5189993 7.906-29.7079993 10.17-4.068-6.837-7.788-14.241-11.028-21.479-3.842.642-7.702.88-11.567.926v.006c-.027 0-.052-.006-.075-.006-.024 0-.049.006-.073.006v-.006c-3.872-.046-7.729-.284-11.572-.926-3.238 7.238-6.956 14.642-11.03 21.479-10.184-2.264-20.257995-5.416-29.702999-10.17.216-8.34.755-16.331 1.848-24.448-3.668-2.35-7.523-4.367-10.949-7.118-3.481-2.678-7.036-5.24-10.188-8.372-6.297 4.165-12.962 8.079-19.828 11.534-7.401-7.965-14.321-16.561995-19.974-26.181995 4.253-6.88 8.693-13.329 13.487-19.449z" fill="#478cbf"/></g><g fill="#fff"><path d="m1.6442769-.20553461c-3.878 0-6.7363849 2.86951551-7.021 6.38100001l-1.6442769 20.2865346c-.2843727 3.508494 3.143 6.381 7.021 6.381s6.7436273-2.872506 7.028-6.381l1.6442769-20.2865346c.2846151-3.5114845-3.15-6.38100001-7.028-6.38100001" transform="matrix(.16091166 0 0 -.16091166 20.346002 22.80865)"/><g transform="matrix(.35277777 0 0 -.35277777 -184.3711 181.1081)"><path d="m594.45703 460.98654c0-5.66602 4.04092-6.23181 9.53725-6.23181 5.49223 0 9.94723.74086 9.94723 6.23811 0 5.4936-10.01099-.0592-14.44723-.0592-4.43955 0-5.03725 5.71516-5.03725.0529"/><path d="m566.72173 460.98654c0-5.66602-4.04109-6.23181-9.53651-6.23181-5.49269 0-9.94814.74086-9.94814 6.23811 0 5.4936 10.01153-.0592 14.44814-.0592 4.43882 0 5.03651 5.71516 5.03651.0529"/></g></g><path d="m40.560547 67.226562c-1.40594 1.56061-2.267578 3.619732-2.267578 5.884766 0 1.671213.474191 3.227755 1.283203 4.558594 1.922439.385874 4.138082.49414 6.501953.49414 3.587179 0 6.704078-.186781 8.957031-1.257812.551549-1.150448.869141-2.433778.869141-3.794922 0-1.399671-.334782-2.719204-.916016-3.894531-.797998.412376-1.752801.708984-2.910156.708984-2.879874 0-7.512133-1.743422-11.517578-2.699219z" fill="#414042" transform="scale(.26458333)"/><path d="m-84.974146 10.375551c-13.782984 2.276306-20.165724 5.614942-20.165724 10.623965 0 5.005698 15.844997-6.093306 27.418422-4.415486 9.953036 1.44291 9.855651-3.301047 9.855651-9.5764164 0-6.27954089-4.807316 1.33638-17.108349 3.3679374z" fill="#fff" transform="matrix(.14643782 0 0 -.13076283 24.678732 17.90798)"/><path d="m27.963946 10.375551c11.975156 3.035074 20.163723 5.614942 20.163723 10.623965 0 5.005698-17.649721-6.740452-27.416421-4.415486-10.498349 2.499135-9.758875-2.651696-9.758875-8.9270654 0-6.2795405 4.882184-.355579 17.011573 2.7185864z" fill="#fff" transform="matrix(.14643782 0 0 -.13076283 24.678732 17.90798)"/><path d="m113.60156 67.332031c-3.91109.97256-8.32673 2.59375-11.11133 2.59375-1.35396 0-2.4291-.407-3.298824-.93164-.651183 1.229056-1.023437 2.629591-1.023437 4.117187 0 1.214781.246598 2.371193.691406 3.423828.000237.000561-.000237.0014 0 .002 2.282865 1.396165 5.669075 1.626953 9.630855 1.626953 2.13868 0 4.15217-.0907 5.94141-.392578.84675-1.352408 1.3418-2.946682 1.3418-4.660156 0-2.214031-.82244-4.23174-2.17188-5.779297z" fill="#414042" transform="scale(.26458333)"/><path d="m57.601304 199.90573v1.17062l1.574187 1.96926 1.593357 3.23201 6.290424.37454 6.819939.0313 5.264345-.48217 2.830918-3.64883.351794-1.51351-.0081-1.13324-1.466908.13059-3.291621.18709-14.652491-1.09545-5.305833.77777" fill="#fff" transform="matrix(.51261093 0 0 .57932603 -15.184933 -90.311228)"/><path d="m-111.05353 72.551269v3.013326c.0515.000545.10379.0012.15485.0053l14.087641 5.842235c1.003829.111118 1.791945 1.039798 1.86183 2.195313l.590005 9.716797 14.740063 1.371093 1.322266-4.761068c.171591-1.162809 1.169514-2.02539 2.345703-2.02539h23.22461c1.175584 0 2.172272.862581 2.34375 2.02539l1.322265 4.761068 14.739047-1.371093.591706-9.716797c.07041-1.155515.856297-2.083401 1.860131-2.195313l14.08084-5.842235c.05103-.0069.101694-.0053.153318-.0053v-2.583605l.0061-.0035c-10.59196-3.941879-83.121195-5.82796-93.424155-.426204zm-.0292 7.29644c-1.6927-.84981.0292 4.019657.0292 4.438095 0 18.850436 13.72643 23.426456 46.674624 23.541996h.03906.04102c32.948217-.11565 46.664856-4.69156 46.664856-23.541996 0-.426106.0229-2.518726.02913-4.438095l-12.130941 6.093697-.593405 9.767578c-.0714 1.177437-.88615 2.114709-1.911141 2.199219l-18.675687 1.673828c-.05694.0051-.113229.0078-.169922.0078-1.165266 0-2.169677-.855287-2.341796-2.025391l-1.345704-4.911459h-19.132814l-1.34375 4.911472c-.180661 1.227288-1.27788 2.110164-2.513672 2.019531l-18.676702-1.673828c-1.025009-.08466-1.839666-1.021782-1.911138-2.199218l-.593406-9.769532z" fill="#478cbf" transform="matrix(.13562831 0 0 .15328001 29.404128 13.916824)"/><g fill="none" stroke="#fff" stroke-opacity=".560484" stroke-width=".531545"><path d="m15.404597 23.022363c-.780602 1.495706-1.888314 1.408689-2.904355 1.506883-.915378.08846-2.152593-.0809-1.881313 2.634135"/><path d="m26.586142 23.051742c.780602 1.495706 1.935086 1.521607 2.904355 1.506883.919536-.01397 2.59624-.0809 2.324961 2.634134"/></g><g transform="translate(-86.984218 -179.9126)"><g stroke="#414042"><path d="m131.08829 222.97522c1.71812-1.18978 2.36783-2.88372 2.99209-4.74489.6077-1.81182 1.1443-5.00183.98651-5.4253-.15778-.42349-2.72508 1.87196-2.72508 1.87196l-1.49022 4.29532z" fill="#a07236" stroke-width=".300845"/><g transform="matrix(.29241265 .93457723 -.92202757 .52263311 270.22905 4.826998)"><path d="m103.40634 207.95988-2.07247-1.95224 15.8023-14.89274c2.59174-2.44158 1.03623-5.85819 1.55552-6.34609.51619-.48934.88978-.25059 1.03467-.001 1.31425 2.26393 4.37844 5.02305 5.9151 5.66846 1.8598.78115.30306 1.16694.30306 1.16694-.75727.33754-4.47818-.66316-6.73664 1.46508z" fill="#fcab40" stroke-width=".5"/><path d="m101.17335 206.17844c-.41909.36024-1.195001-.17721-1.472486.0839-.2859.26886-.269462.6724-.141841 1.02515.296246.81884 1.206937 1.54792 2.388847 2.01096.39446.15454.89144.19059 1.17742-.0788.27506-.26003-.18247-.7747.18802-1.24679.36894-.47012.94227-.59365-.10663-1.04118-1.04891-.44753-.92071-1.70962-1.45161-1.25327z" fill="#ccd6dd" stroke-width=".6"/><path d="m117.28992 201.11392c.4175.39257 1.09537.39503 1.51051.005.41514-.39006.41232-1.02486-.006-1.4169l-4.5504-4.26768c-.41919-.39258-1.09479-.39502-1.50993-.005-.41572.39006-.4129 1.02487.006 1.41744zm-2.25689 2.11716c.41864.39257 1.09592.39502 1.51052.005.41514-.39007.41232-1.02435-.006-1.41692l-4.55095-4.26767c-.4192-.39255-1.09537-.395-1.51108-.005-.41516.38953-.41234 1.02433.006 1.41744zm-2.25572 2.11715c.41861.39257 1.09422.39502 1.50994.005.41514-.38954.41232-1.02487-.006-1.41689l-4.54986-4.26716c-.41916-.39256-1.09535-.39501-1.51107-.005-.41514.38902-.41232 1.02382.006 1.4169z" fill="#a07236" stroke-width=".7"/><path d="m109.12741 208.57452c-.94131 0-2.21979-.43113-3.04163-1.17731-.82106-.74546-1.28523-1.73112-1.30677-2.77437-.0215-1.04257.40217-2.01742 1.1928-2.74598l7.89608-7.26902c.79063-.72785 1.85445-1.12166 2.99511-1.10871 1.13996.0129 2.22055.43114 3.04163 1.17732 1.69505 1.5411 1.74618 4.01774.11394 5.52035l-7.89605 7.26834c-.79141.72786-2.13492 1.10938-2.99515 1.10938zm7.78931-12.47347c-.38069-.005-.73457.12714-.99886.36978l-7.89531 7.26903c-.26413.24318-.40502.56779-.39784.91532.007.34822.16207.67539.43509.9241.27438.24885.63389.38904 1.01389.39336.37997.005.73457-.12714.99809-.3705l7.89608-7.26834c.54407-.50087.52627-1.32666-.0388-1.84011-.27296-.24883-.63237-.38833-1.01237-.39264z" fill="#fcab40" stroke-width=".6"/><path d="m111.19951 195.24885c.20099.19237.53178.1886.73818-.008l.74784-.71352c.20633-.197.21067-.51318.01-.70614-.20161-.19235-.53178-.18858-.73817.008l-.74787.71455c-.20695.19702-.21128.5127-.01.7051zm-2.24354 2.14263c.2016.19354.5312.18918.73814-.008l.74732-.71402c.20697-.19761.21191-.51269.01-.70563-.20098-.19294-.53122-.18918-.73816.008l-.74787.71404c-.20634.1976-.21067.5132-.009.70561zm-2.24411 2.14263c.20162.19295.53121.18919.73817-.008l.74784-.71456c.20695-.19701.21129-.51267.01-.70562-.20098-.19236-.5312-.1886-.7376.008l-.74786.71457c-.20696.19702-.21129.51267-.0102.70561z" fill="#ccd6dd" stroke-width=".4"/></g><path d="m122.47132 215.60462 4.2778 1.43177" fill="none" stroke-width=".528729"/></g><path d="m125.73227 213.50738c1.75319 1.4116 2.15643 3.14586 2.15643 3.14586-.10517.78646-6.70899-1.90264-6.70899-1.90264l-6.54517-5.17556z" fill="#fcab40"/></g></svg>