<svg height="129.23181" viewBox="0 0 44.33037 34.192583" width="167.54785" xmlns="http://www.w3.org/2000/svg"><g transform="matrix(.35277778 0 0 -.35277778 -176.749495 179.35455)"><path d="m568.60518 499.16963c-4.64519-1.03269-11.14588-2.68082-15.79531-4.84924-.29969-2.66642 2.46061-3.32011.20024-3.83693-1.67308-1.07189-3.43243-1.99128-4.99512-3.2461-1.58778-1.2215-4.64551.284-4.64648.28394-5.1879.66473-8.00299 16.18075-11.13477 17.75667-4.05841-3.74683-3.76777-14.58774-4.44473-21.38096.91598-5.64109 1.38989-9.13646 3.57656-11.92794h.0615l.001-34.18506c0-15.67893 19.88895-23.21461 44.6001-23.30127h.0292.0309c24.71117.0867 44.59422 7.62234 44.59422 23.30127l.006 34.18506h.0601c2.18715 2.79148 2.51929 7.27253 2.96825 13.42173-.45067 5.57895-2.20893 16.81683-6.38113 20.33612-3.13083-1.57592-3.24776-15.22523-8.59003-18.20562-1.43728-1.11516-3.05643-1.50544-4.6465-.28394-1.56223 1.25482-3.32229 2.17421-4.99218 3.2461-1.52225 1.39855-.19674.23709-.0978 4.04121-4.30858 2.16842-11.05562 3.82285-15.70311 4.85554-1.85553-3.11857.39274-3.07116-1.93838-2.90261-1.75246.29282-3.51343.40088-5.27635.42185v.003c-.0113 0-.0227-.003-.0337-.003-.0113 0-.0227.003-.0337.003v-.003c-1.76613-.0198-3.52494-.12897-5.27783-.42185-1.33475-1.73289-.28303-.42654-2.14128 2.69203z" fill="#fff" stroke="#801600" stroke-linejoin="round" stroke-width="6"/><path d="m531.36442 471.96947h.0615l.001-34.18506c0-15.67893 19.88895-23.21461 44.60009-23.30127h.0292.0309c24.71117.0867 44.59422 7.62234 44.59422 23.30127l.006 34.18506h.0601c-35.74003 0-50.67295 0-89.38301 0z" fill="#fff"/><path d="m0 0v-47.514-6.035-5.492c.108-.001.216-.005.323-.015l36.196-3.49c1.896-.183 3.382-1.709 3.514-3.609l1.116-15.978 31.574-2.253 2.175 14.747c.282 1.912 1.922 3.329 3.856 3.329h38.188c1.933 0 3.573-1.417 3.855-3.329l2.175-14.747 31.575 2.253 1.115 15.978c.133 1.9 1.618 3.425 3.514 3.609l36.182 3.49c.107.01.214.014.322.015v4.711l.015.005v54.325h.134c3.7973 9.8613859 6.08 17.476463 6.50308 29.426029-1.22369 19.302522-6.58878 36.619271-13.98978 44.584271-6.864-3.455-4.30225-31.508063-18.8303-39.9133-3.99163-2.752439-6.7-4.560142-10.186-1.882142-3.425 2.751-7.285 4.768-10.946 7.118.6535 4.063832 1.13015 3.298878 1.53422 9.206977-9.446 4.754-26.31585 8.966059-36.50485 11.230059-2.0726-3.407396-2.11357-4.175561-3.91937-7.298036-3.842.642-7.702.88-11.567.926v.006c-.027 0-.052-.006-.075-.006-.024 0-.049.006-.073.006v-.006c-3.872-.046-7.729-.284-11.572-.926-1.97385 3.885256-1.074956 2.407897-3.93977 7.156302-10.184-2.264-26.688674-7.504594-36.133674-12.258594 1.260298-8.50489.09544.08029 1.188444-8.036708-3.668-2.35-7.523-4.367-10.949-7.118-3.481-2.678-7.141079-.55506-10.188 1.882142-14.528049 3.666149-17.5476362 35.474022-24.4136362 38.929022-7.401-7.965-9.2937578-27.759863-9.7445038-46.874938 1.509317-11.120238 3.04914-20.031084 7.84314-26.151084z" fill="#bb1d11" transform="matrix(.45612755 0 0 .45612755 531.4276 471.96878)"/><path d="m0 0-1.121-16.063c-.135-1.936-1.675-3.477-3.611-3.616l-38.555-2.751c-.094-.007-.188-.01-.281-.01-1.916 0-3.569 1.406-3.852 3.33l-2.211 14.994h-31.459l-2.211-14.994c-.297-2.018-2.101-3.469-4.133-3.32l-38.555 2.751c-1.936.139-3.476 1.68-3.611 3.616l-1.121 16.063-32.547 3.138c.015-3.498.06-7.33.06-8.093 0-34.374 43.605-50.896 97.781-51.086h.066.067c54.176.19 97.766 16.712 97.766 51.086 0 .777.047 4.593.063 8.093z" fill="#bb1d11" transform="matrix(.45612755 0 0 .45612755 605.87139 440.04499)"/><path d="m0 0c0-12.052-9.765-21.815-21.813-21.815-12.042 0-21.81 9.763-21.81 21.815 0 12.044 9.768 21.802 21.81 21.802 12.048 0 21.813-9.758 21.813-21.802" fill="#fff" transform="matrix(.45612755 0 0 .45612755 562.60408 461.03691)"/><path d="m0 0c0-7.994-6.479-14.473-14.479-14.473-7.996 0-14.479 6.479-14.479 14.473s6.483 14.479 14.479 14.479c8 0 14.479-6.485 14.479-14.479" fill="#7a0e03" transform="matrix(.45612755 0 0 .45612755 560.21004 460.44675)"/><path d="m0 0c-3.878 0-7.021 2.858-7.021 6.381v20.081c0 3.52 3.143 6.381 7.021 6.381s7.028-2.861 7.028-6.381v-20.081c0-3.523-3.15-6.381-7.028-6.381" fill="#fff" transform="matrix(.45612755 0 0 .45612755 576.05781 450.18125)"/><path d="m0 0c0-12.052 9.765-21.815 21.815-21.815 12.041 0 21.808 9.763 21.808 21.815 0 12.044-9.767 21.802-21.808 21.802-12.05 0-21.815-9.758-21.815-21.802" fill="#fff" transform="matrix(.45612755 0 0 .45612755 589.51321 461.03691)"/><path d="m0 0c0-7.994 6.477-14.473 14.471-14.473 8.002 0 14.479 6.479 14.479 14.473s-6.477 14.479-14.479 14.479c-7.994 0-14.471-6.485-14.471-14.479" fill="#7a0e03" transform="matrix(.45612755 0 0 .45612755 591.90786 460.44675)"/></g><path d="m29.40349 55.872381c0-12.440756-2.076643-51.7060797-2.076643-51.7060797 8.379-1.663 14.654-9.1039999 14.6065-11.0724999.489357-3.023147-3.349167-14.2686144-.698859-17.9556884l4.140783-4.140783-4.140783-4.140783-4.140783 4.140783 1.418848 3.41139c-.155585 4.14894-.984706 16.4057784-.984706 16.4057784-.729195.870329-11.5 1.084964-11.5235-.118036 0 0-1.423767-11.4740604-.0235-14.8969354l4.5-6-6.5-6.5-6.5 6.5 4.5 6c1.555852 3.578461 0 14.9027744 0 14.9027744-.164 2.246-10.799843.933739-11.509.0878 0 0-.161662-12.8861104-.9914503-16.5682944l1.3865923-3.380062-4.140784-4.140783-4.1407831 4.140783 4.1407831 4.140783c2.9125667 2.708866-.4880935 15.3882874-.6368591 18.1107734-.0475 1.968 6.1975011 9.4099999 14.5755011 11.0729999 0 0 .116115 39.4193627.116115 51.7060797 0 2.874176 8.622528 2.874176 8.622528 0z" fill="#f1a300" stroke="#ffce0c" transform="matrix(.24751995 -.09347841 .09347841 .24751995 2.794293 21.49361)"/></svg>