<svg height="135.86064" viewBox="0 0 37.990003 35.946461" width="143.58426" xmlns="http://www.w3.org/2000/svg" xmlns:xlink="http://www.w3.org/1999/xlink"><filter id="a" color-interpolation-filters="sRGB" height="1.027376" width="1.005069" x="-.000034" y="-.000027"><feGaussianBlur stdDeviation=".00015393858"/></filter><g transform="translate(-86.838191 -179.91244)"><path d="m102.1847 180.97094c-1.63872.36431-3.259752.87163-4.779561 1.6366.03475 1.34201.121775 2.628.297656 3.93412-.590226.37814-1.210885.70248-1.762167 1.14515-.560134.43092-1.131983.84324-1.639175 1.34721-1.013263-.67019-2.085686-1.30027-3.190508-1.85622-1.190904 1.28166-2.304638 2.66521-3.214272 4.21318.684357 1.10707 1.399001 2.14475 2.170409 3.12952h.0217l.000353 12.05973c0 5.53118 7.016379 8.1896 15.733925 8.22017h.0103.0109c8.71755-.0306 15.73185-2.68899 15.73185-8.22017l.002-12.05973h.0212c.77157-.98477 1.48573-2.02245 2.1704-3.12952-.90932-1.54797-2.02336-2.93152-3.21427-4.21318-1.10448.55595-2.17724 1.18603-3.19049 1.85622-.50704-.50397-1.07825-.91629-1.63919-1.34721-.55112-.44267-1.17203-.76701-1.76113-1.14515.17539-1.30612.26172-2.59211.29663-3.93412-1.51998-.76497-3.14054-1.27229-4.78008-1.6366-.65459 1.10016-1.25321 2.29145-1.77457 3.45612-.61823-.1033-1.23946-.14142-1.86138-.14882v-.001c-.004 0-.008.001-.0119.001-.004 0-.008-.001-.0119-.001v.001c-.62305.007-1.24352.0455-1.8619.14882-.52104-1.16467-1.11954-2.35596-1.77509-3.45612z" fill="#fff" stroke="#255b1a" stroke-linejoin="round" stroke-width="2.117"/><path d="m102.1847 180.97094c-1.63872.36431-3.259764.87163-4.779574 1.6366.0348 1.34201.12178 2.628.29766 3.93412-.59023.37814-1.21088.70248-1.76217 1.14515-.56013.43092-1.13198.84324-1.63917 1.34721-1.01326-.67019-2.08569-1.30027-3.19051-1.85622-1.1909 1.28166-2.30464 2.66521-3.21427 4.21318.68436 1.10707 1.399 2.14475 2.17041 3.12952h.0217l.00034 12.05973c0 5.53118 7.01638 8.1896 15.733944 8.22017h.0103.0109c8.71755-.0306 15.73185-2.68899 15.73185-8.22017l.002-12.05973h.0212c.77158-.98477 1.48573-2.02245 2.17041-3.12952-.90932-1.54797-2.02336-2.93152-3.21427-4.21318-1.10449.55595-2.17724 1.18603-3.1905 1.85622-.50704-.50397-1.07824-.91629-1.63918-1.34721-.55112-.44267-1.17203-.76701-1.76113-1.14515.17539-1.30612.26171-2.59211.29662-3.93412-1.51995-.76497-3.14052-1.27229-4.78005-1.6366-.65459 1.10016-1.25322 2.29145-1.77457 3.45612-.61823-.1033-1.23946-.14142-1.86138-.14882v-.001c-.004 0-.008.001-.0119.001-.004 0-.008-.001-.0119-.001v.001c-.62305.007-1.24352.0455-1.8619.14882-.52104-1.16467-1.11954-2.35596-1.77509-3.45612z" fill="#fff"/><path d="m0 0v-47.514-6.035-5.492c.108-.001.216-.005.323-.015l36.196-3.49c1.896-.183 3.382-1.709 3.514-3.609l1.116-15.978 31.574-2.253 5.463554 14.404175c.587206 1.548116 1.646586 2.85197 3.303453 2.85197h32.715843c1.65601 0 2.71539-1.303854 3.3026-2.85197l5.46355-14.404175 31.575 2.253 1.115 15.978c.133 1.9 1.618 3.425 3.514 3.609l36.182 3.49c.107.01.214.014.322.015v4.711l.015.005v54.325h.134c4.795 6.12 9.232 12.569 13.487 19.449-5.651 9.62-12.575 18.217-19.976 26.182-6.864-3.455-13.531-7.369-19.828-11.534-3.151 3.132-6.7 5.694-10.186 8.372-3.425 2.751-7.285 4.768-10.946 7.118 1.09 8.117 1.629 16.108 1.846 24.448-9.446 4.754-19.519 7.906-29.708 10.17-4.068-6.837-7.788-14.241-11.028-21.479-3.842.642-7.702.88-11.567.926v.006c-.027 0-.052-.006-.075-.006-.024 0-.049.006-.073.006v-.006c-3.872-.046-7.729-.284-11.572-.926-3.238 7.238-6.956 14.642-11.03 21.479-10.184-2.264-20.258-5.416-29.703-10.17.216-8.34.755-16.331 1.848-24.448-3.668-2.35-7.523-4.367-10.949-7.118-3.481-2.678-7.036-5.24-10.188-8.372-6.297 4.165-12.962 8.079-19.828 11.534-7.401-7.965-14.321-16.562-19.974-26.182 4.253-6.88 8.693-13.329 13.487-19.449z" fill="#339021" transform="matrix(.16091166 0 0 -.16091166 90.088965 194.5206)"/><path d="m0 0-1.121-16.063c-.135-1.936-1.675-3.477-3.611-3.616l-38.555-2.751c-.094-.007-.188-.01-.281-.01-1.916 0-3.569 1.406-3.852 3.33l-2.211 6.855244h-31.459l-2.211-6.855244c-.297-2.018-2.101-3.469-4.133-3.32l-38.555 2.751c-1.936.139-3.476 1.68-3.611 3.616l-1.121 16.063-32.547 3.138c.015-3.498.06-7.33.06-8.093 0-34.374 43.605-50.896 97.781-51.086h.066.067c54.176.19 97.766 16.712 97.766 51.086 0 .777.047 4.593.063 8.093z" fill="#339021" transform="matrix(.16091166 0 0 -.16091166 116.35108 205.78261)"/><path d="m3.5641298 0c0-12.052-8.5851076-21.815-19.1773628-21.815-10.586981 0-19.174727 9.763-19.174727 21.815 0 12.044 8.587746 21.802 19.174727 21.802 10.5922552 0 19.1773628-9.758 19.1773628-21.802" fill="#f2c826" transform="matrix(.16091166 0 0 -.16091166 101.08733 198.37712)"/><path d="m0 0c0-7.994-6.479-14.473-14.479-14.473-7.996 0-14.479 6.479-14.479 14.473s6.483 14.479 14.479 14.479c8 0 14.479-6.485 14.479-14.479" fill="#414042" transform="matrix(.16091166 0 0 -.16091166 100.24277 198.58532)"/><path d="m-3.5641298 0c0-12.052 8.5851076-21.815 19.1791218-21.815 10.586102 0 19.172968 9.763 19.172968 21.815 0 12.044-8.586866 21.802-19.172968 21.802-10.5940142 0-19.1791218-9.758-19.1791218-21.802" fill="#f2c826" transform="matrix(.16091166 0 0 -.16091166 110.58028 198.37712)"/><path d="m0 0c0-7.994 6.477-14.473 14.471-14.473 8.002 0 14.479 6.479 14.479 14.473s-6.477 14.479-14.479 14.479c-7.994 0-14.471-6.485-14.471-14.479" fill="#414042" transform="matrix(.16091166 0 0 -.16091166 111.42506 198.58532)"/><path d="m102.54419 202.70925c0-.57757.42566-1.04566.95034-1.04566h.35002c.52425 0 .95035.46809.95035 1.04566s-.4261 1.04671-.95035 1.04671h-.35002c-.52468 0-.95034-.46914-.95034-1.04671" fill="#89dd7e"/><path d="m106.87325 202.70925c0-.57757.42565-1.04566.95035-1.04566h.35002c.52425 0 .95034.46809.95034 1.04566s-.42609 1.04671-.95034 1.04671h-.35002c-.5247 0-.95035-.46914-.95035-1.04671" fill="#89dd7e"/><g fill="#8da109"><path d="m192.43768 4.5217615c4.795 6.1200005 6.25175 7.4306345 10.50675 14.3106345-3.51185 8.554395-6.30149 13.293568-14.22103 20.221496-8.09721-2.941163-10.44798-4.594283-15.92285-9.684189 5.05246-10.758718 9.87947-16.726462 19.63713-24.8479415z" transform="matrix(.16091166 0 0 -.16091166 90.088965 194.5206)"/><path d="m93.822239 189.79468c-1.06287-.83556-1.093551-1.05196-2.446418-1.52523-1.025543.85171-1.775249 1.39171-2.354153 3.12158.53553 1.12361.825055 1.21875 1.596467 2.20353 1.697034-1.25948 2.712286-2.13975 3.204104-3.79988z"/><path d="m103.05053 184.65877c-.52103-1.16468-.42477-1.43003-1.17954-2.61286-1.63873.0666-2.118736.1935-3.671618 1.17345-.01485 1.59005.104951 1.86717.280829 3.17329 2.265429-.47873 3.083039-.69803 4.570329-1.73388z"/><path d="m143.0361 50.922975c1.60384 8.117 2.55391 11.277936 2.66814 19.823471-7.69896 4.342931-13.5585 6.261723-21.69215 7.49805-4.6846-6.323163-6.81323-10.253732-9.23109-17.18343 9.20365-4.814074 16.40138-7.928187 28.2551-10.138091z" transform="matrix(.16091166 0 0 -.16091166 90.088965 194.5206)"/></g><path d="m105.8251 211.51193c-1.09746 3.7207-2.70941-.20445-2.70941-1.83147s-.99604-3.54404 2.70713-3.54404c3.73404 0 2.70713 1.91701 2.70713 3.54404s-1.48336 5.53977-2.70485 1.83147" fill="#d12d11"/><path d="m106.86994 208.99841c0 .96444-.41543 2.16212-1.04484 2.16212-.6294 0-1.04482-1.19768-1.04482-2.16212 0-.96443-.38443-1.90472 1.04482-1.90472 1.44118 0 1.04484.94028 1.04484 1.90472z" fill="#a3250e"/></g><path d="m18.87257 17.115705c.622466.150526 2.504982 3.939767 2.504982 4.551145-1.495023.361529-1.550274-.325523-2.50992-.325423-.959646.00002-1.01273.673788-2.500044.314123 0-.587937 1.835701-4.377994 2.504982-4.539841z" fill="#8da109" filter="url(#a)" transform="matrix(.93351981 0 0 1.034381 1.377967 -2.305821)"/></svg>