<svg clip-rule="evenodd" fill-rule="evenodd" stroke-linecap="round" stroke-linejoin="round" stroke-miterlimit="1.5" viewBox="0 0 143 172" xmlns="http://www.w3.org/2000/svg" xmlns:xlink="http://www.w3.org/1999/xlink"><clipPath id="a"><path clip-rule="nonzero" d="m0 0c0-45.551-36.907-82.45-82.443-82.45-45.513 0-82.431 36.899-82.431 82.45 0 45.521 36.918 82.401 82.431 82.401 45.536 0 82.443-36.88 82.443-82.401"/></clipPath><clipPath id="b"><path clip-rule="nonzero" d="m0 0c0-45.551 36.907-82.45 82.45-82.45 45.51 0 82.424 36.899 82.424 82.45 0 45.521-36.914 82.401-82.424 82.401-45.543 0-82.45-36.88-82.45-82.401"/></clipPath><path d="m55.103 104.59h-15.341s-3.668 2.741-4.781 5.886c-1.06 2.995 0 8.682 0 8.682h13.444s-1.06-5.687 0-8.682c1.113-3.145 6.678-5.886 6.678-5.886z" fill="#414042" stroke="#7e7e7e" stroke-width="1.59" transform="matrix(-1.0342 0 0 1.444549876 140.488241702 -24.7982161444)"/><path d="m42.057 133.05c-.139.155-.184.136-.709.207-2.2.299-8.115 1.071-11.425 1.071-3.213 0-8.708-.772-10.757-1.071-.49-.071-.523-.052-.652-.207-.129-.154.001-5.77 0-6.285-.008-3.107-.321-8.616 3.308-10.682 4.232-2.408 12.695-2.408 16.927 0 3.63 2.066 3.316 7.575 3.308 10.682-.001.515.139 6.131 0 6.285z" fill="#292f33" transform="matrix(-1.559232314 0 0 1.359776502 144.875680072 -16.6155223244)"/><path d="m109.846 125.615c0-1.34-.796-2.428-1.776-2.428h-16.306c-.98 0-1.776 1.088-1.776 2.428s.796 2.428 1.776 2.428h16.306c.98 0 1.776-1.088 1.776-2.428z" fill="#546170" transform="matrix(1.18576201 0 0 .8671880762 -20.8281462 48.9378651956)"/><path d="m55.103 104.59h-15.341s-3.668 2.741-4.781 5.886c-1.06 2.995 0 8.682 0 8.682h13.444s-1.06-5.687 0-8.682c1.113-3.145 6.678-5.886 6.678-5.886z" fill="#414042" stroke="#7e7e7e" stroke-width="1.59" transform="matrix(1.0342 0 0 1.444549876 1.99245929 -24.7982161444)"/><path d="m42.057 133.05c-.139.155-.184.136-.709.207-2.2.299-8.115 1.071-11.425 1.071-3.213 0-8.708-.772-10.757-1.071-.49-.071-.523-.052-.652-.207-.129-.154.001-5.77 0-6.285-.008-3.107-.321-8.616 3.308-10.682 4.232-2.408 12.695-2.408 16.927 0 3.63 2.066 3.316 7.575 3.308 10.682-.001.515.139 6.131 0 6.285z" fill="#292f33" transform="matrix(1.559232314 0 0 1.359776502 -2.39497908 -16.6155223244)"/><path d="m109.846 125.615c0-1.34-.796-2.428-1.776-2.428h-16.306c-.98 0-1.776 1.088-1.776 2.428s.796 2.428 1.776 2.428h16.306c.98 0 1.776-1.088 1.776-2.428z" fill="#546170" transform="matrix(1.18576201 0 0 .8671880762 -73.647780748 48.9378651956)"/><path d="m51.464 108.733v-12.501s-6.442 2.886-9.722 5.605c-2.556 2.12-5.54 6.606-5.971 9.827-.411 3.076 0 7.494 0 7.494h11.389s-1.06-4.499 0-7.494c1.113-3.145 4.304-2.931 4.304-2.931z" fill="#414042" stroke="#7e7e7e" stroke-width="1.59" transform="matrix(-1.0342 0 0 1.444549876 170.9989972 -72.54112796)"/><path d="m51.464 108.733v-12.501s-6.442 2.886-9.722 5.605c-2.556 2.12-5.54 6.606-5.971 9.827-.411 3.076 0 7.494 0 7.494h11.389s-1.06-4.499 0-7.494c1.113-3.145 4.304-2.931 4.304-2.931z" fill="#414042" stroke="#7e7e7e" stroke-width="1.59" transform="matrix(1.0342 0 0 1.444549876 -28.51762576 -72.54112796)"/><g fill-rule="nonzero"><path d="m2138.13 1928.99c-17.55-3.91-34.92-9.34-51.2-17.54.37-14.38 1.3-28.15 3.19-42.15-6.33-4.05-12.98-7.52-18.88-12.27-6-4.61-12.13-9.03-17.56-14.43-10.86 7.18-22.35 13.93-34.19 19.89-12.75-13.73-24.69-28.56-34.43-45.14 7.33-11.86 14.99-22.98 23.25-33.53h.23l.01-114.55c0-59.26 75.17-80.36 168.56-80.68h.23c93.4.32 168.55 21.42 168.55 80.68l.02 114.55h.23c8.26 10.55 15.91 21.67 23.25 33.53-9.74 16.58-21.68 31.41-34.44 45.14-11.83-5.96-23.32-12.71-34.18-19.89-5.43 5.4-11.55 9.82-17.56 14.43-5.91 4.75-12.56 8.22-18.87 12.27 1.88 14 2.8 27.77 3.18 42.15-16.28 8.2-33.65 13.63-51.21 17.54-7.02-11.79-13.43-24.56-19.01-37.03-6.63 1.1-13.28 1.51-19.95 1.59v.01c-.04 0-.08-.01-.12-.01-.05 0-.09.01-.13.01v-.01c-6.68-.07-13.32-.49-19.95-1.59-5.58 12.47-11.99 25.24-19.02 37.03z" fill="#fff" transform="matrix(.29575813908 0 0 -.29575813908 -572.603800484 576.471825607)"/><path d="m0 47.873-4.237-60.711c-.51-7.317-6.331-13.141-13.648-13.667l-145.719-10.397c-.356-.027-.711-.038-1.062-.038-7.242 0-13.49 5.314-14.559 12.586l-8.357 56.67h-118.9l-8.356-56.67c-1.123-7.627-7.941-13.111-15.621-12.548l-145.72 10.397c-7.317.526-13.138 6.35-13.648 13.667l-4.237 60.711-123.012 11.86c.057-13.221.227-70.321.227-72.571 0-101.375 164.806-150.102 369.566-150.662h.503c204.759.56 369.509 49.287 369.509 150.662 0 2.291.177 59.342.238 72.571z" fill="#478cbf" transform="matrix(.13490363253 0 0 -.13490363253 104.654990417 84.5784326916)"/><path d="m0 0v-175.275c.408-.003.816-.018 1.221-.056l136.804-13.191c7.166-.691 12.782-6.459 13.281-13.64l4.218-60.389 119.335-8.516 8.22 55.737c1.066 7.226 7.264 12.582 14.574 12.582h144.332c7.306 0 13.505-5.356 14.571-12.582l8.22-55.737 119.339 8.516 4.214 60.389c.502 7.181 6.115 12.945 13.281 13.64l136.751 13.191c.404.038.809.053 1.217.056v17.806l.057.019v157.45h.506c18.123 23.131 34.893 47.505 50.975 73.508-21.359 36.359-47.528 68.852-75.5 98.956-25.943-13.059-51.141-27.852-74.941-43.593-11.909 11.837-25.323 21.52-38.498 31.642-12.945 10.397-27.534 18.021-41.371 26.902 4.12 30.679 6.157 60.881 6.977 92.402-35.701 17.968-73.772 29.881-112.282 38.438-15.375-25.841-29.435-53.824-41.681-81.18-14.52 2.426-29.109 3.326-43.717 3.499v.023c-.102 0-.197-.023-.284-.023-.091 0-.185.023-.276.023v-.023c-14.634-.173-29.212-1.073-43.736-3.499-12.239 27.356-26.291 55.339-41.689 81.18-38.49-8.557-76.565-20.47-112.263-38.438.816-31.521 2.854-61.723 6.985-92.402-13.864-8.881-28.434-16.505-41.382-26.902-13.157-10.122-26.593-19.805-38.506-31.642-23.8 15.741-48.99 30.534-74.941 43.593-27.972-30.104-54.126-62.597-75.492-98.956 16.074-26.003 32.855-50.377 50.975-73.508z" fill="#478cbf" transform="matrix(.13490363253 0 0 -.13490363253 21.4397410305 48.8931723697)"/><path d="m0 0c-14.657 0-26.536 10.802-26.536 24.117v75.897c0 13.304 11.879 24.117 26.536 24.117s26.563-10.813 26.563-24.117v-75.897c0-13.315-11.906-24.117-26.563-24.117" fill="#fff" transform="matrix(.13490363253 0 0 -.13490363253 71.3284812766 67.6595594133)"/></g><g transform="matrix(.13490363253 0 0 -.13490363253 56.2895666439 55.5248388335)"><path d="m0 0c0-45.551-36.907-82.45-82.443-82.45-45.513 0-82.431 36.899-82.431 82.45 0 45.521 36.918 82.401 82.431 82.401 45.536 0 82.443-36.88 82.443-82.401" fill="#fff" fill-rule="nonzero"/><g clip-path="url(#a)"><path d="m0 0c0-30.214-24.488-54.701-54.724-54.701-30.221 0-54.724 24.487-54.724 54.701s24.503 54.724 54.724 54.724c30.236 0 54.724-24.51 54.724-54.724" fill="#414042" fill-rule="nonzero" transform="translate(-19.8373 -4.89014)"/></g></g><g transform="matrix(.13490363253 0 0 -.13490363253 86.369324158 55.5248388335)"><path d="m0 0c0-45.551 36.907-82.45 82.45-82.45 45.51 0 82.424 36.899 82.424 82.45 0 45.521-36.914 82.401-82.424 82.401-45.543 0-82.45-36.88-82.45-82.401" fill="#fff" fill-rule="nonzero"/><g clip-path="url(#b)"><path d="m0 0c0-30.214 24.48-54.701 54.694-54.701 30.243 0 54.723 24.487 54.723 54.701s-24.48 54.724-54.723 54.724c-30.214 0-54.694-24.51-54.694-54.724" fill="#414042" fill-rule="nonzero" transform="translate(19.8424 -4.89014)"/></g></g><g transform="matrix(5.22416 0 0 4.83821 -22.7064 -28.1389)"><g fill-rule="nonzero"><path d="m24.017 32.472c.411-.279 1.068-.685 1.477-2.927.312-1.708 1.624-2.073 1.466-4.156-.353 0-1.106-.448-1.351-.431-.685.048-1.614 1.042-3.164 1.042l-4.444 1.636-4.446-1.636c-1.574 0-2.409-.98-3.12-1.027-.239-.016-1.065.305-1.419.305-.363 2.423 1.205 2.398 1.54 4.275.407 2.282 1.129 2.756 1.427 2.919 1.058.578 3.219 1.798 6 1.798 2.793 0 5.057-1.134 6.034-1.798z" fill="#292f33" transform="matrix(1 0 0 .990302 0 .252136)"/><g fill="#546170" transform="matrix(.730415 0 0 1 4.85253 0)"><path d="m21.633 33.595 5.159-5.698-1.033-1.897-3.259.003-2.414 7.592z"/><path d="m14.367 33.595-5.159-5.698 1.032-1.897 3.26.003 2.414 7.592z"/></g><path d="m19.813 33.595 3.854-7.612-5.668 1.654-5.666-1.654 3.854 7.612s.867.595 1.796.595c.935 0 1.83-.595 1.83-.595z" fill="#dfe7ec"/></g><circle cx="18" cy="31.847" fill="#292f33" r=".7"/><path d="m13.927 24.744 4.073 2.893-2.656 2.818-3.011-4.472zm8.146 0-4.073 2.893 2.656 2.818 3.011-4.472z" fill="#f4f7f9" fill-rule="nonzero" transform="matrix(1 0 0 .84021 0 4.111403)"/><path d="m21.045 26.653c-.072-.043-.159-.043-.231-.003l-2.814 1.547-2.814-1.547c-.072-.04-.159-.039-.231.003-.071.042-.115.119-.115.201v3.218c0 .082.044.159.115.201.037.021.078.032.119.032.039 0 .077-.01.112-.029l2.814-1.548 2.814 1.548c.035.02.073.029.112.029.041 0 .082-.011.119-.032.07-.042.114-.119.114-.201v-3.218c0-.082-.044-.159-.114-.201z" fill="#292f33" fill-rule="nonzero" transform="translate(0 -.786072)"/></g><path d="m44.087 130.718c-3.882 2.844-23.721 2.844-27.604 0-3.883-2.843-.643-12.226 4.172-14.635 4.815-2.408 14.445-2.408 19.261 0 4.815 2.409 8.054 11.792 4.171 14.635z" fill="#418cbf" transform="matrix(-.827512 0 0 1.14675 153.225 -35.0175)"/><path d="m44.087 130.718c-3.882 2.844-23.721 2.844-27.604 0-3.883-2.843-.643-12.226 4.172-14.635 4.815-2.408 14.445-2.408 19.261 0 4.815 2.409 8.054 11.792 4.171 14.635z" fill="#418cbf" transform="matrix(.827512 0 0 1.14675 -10.744 -35.0175)"/></svg>