<svg height="135.85939" viewBox="0 0 37.698152 35.94613" width="142.4812" xmlns="http://www.w3.org/2000/svg"><path d="m0 0v-47.514-6.035-5.492c.108-.001.216-.005.323-.015l36.196-3.49c1.896-.183 3.382-1.709 3.514-3.609l1.116-15.978 31.574-2.253 2.175 14.747c.282 1.912 1.922 3.329 3.856 3.329h38.188c1.933 0 3.573-1.417 3.855-3.329l2.175-14.747 31.575 2.253 1.115 15.978c.133 1.9 1.618 3.425 3.514 3.609l36.182 3.49c.107.01.214.014.322.015v4.711l.015.005v54.325h.134c4.795 6.12 9.232 12.569 13.487 19.449-5.651 9.62-12.575 18.217-19.976 26.182-6.864-3.455-13.531-7.369-19.828-11.534-3.151 3.132-6.7 5.694-10.186 8.372-3.425 2.751-7.285 4.768-10.946 7.118 1.09 8.117 1.629 16.108 1.846 24.448-9.446 4.754-19.519 7.906-29.708 10.17-4.068-6.837-7.788-14.241-11.028-21.479-3.842.642-7.702.88-11.567.926v.006c-.027 0-.052-.006-.075-.006-.024 0-.049.006-.073.006v-.006c-3.872-.046-7.729-.284-11.572-.926-3.238 7.238-6.956 14.642-11.03 21.479-10.184-2.264-20.258-5.416-29.703-10.17.216-8.34.755-16.331 1.848-24.448-3.668-2.35-7.523-4.367-10.949-7.118-3.481-2.678-7.036-5.24-10.188-8.372-6.297 4.165-12.962 8.079-19.828 11.534-7.401-7.965-14.321-16.562-19.974-26.182 4.253-6.88 8.693-13.329 13.487-19.449z" fill="#fff" stroke="#478cbf" stroke-width="4.051913" transform="matrix(.16091166 0 0 -.16091166 3.104747 14.608002)"/><path d="m2.0553461-2.8774846-1.12099998-16.0630004c-.135-1.936-1.675-3.477-3.61100002-3.616l-43.6933651-2.751c-.094-.007-.188-.01-.281-.01-1.916 0-3.569 1.406-3.852 3.33l-2.211 14.9940004h-26.320635l-2.211-14.9940004c-.297-2.018-2.101-3.469-4.133-3.32l-42.871226 2.751c-1.936.139-3.476 1.68-3.611 3.616l-1.121 16.0630004-30.28612 3.13800003c.015-3.49800003.06-17.50344443.06-18.26644443 0-8.5935 7.1231-29.458215 12.05755-35.858809 4.93444-6.400594 23.77786 16.872496 43.09674 2.563925 15.750455-11.665613 15.683878 4.561248 42.693127 7.515446 26.645911-3.222536 26.387988-17.993315 42.480138-6.827592 24.4553804 16.968646 38.750261-8.994206 43.683323-2.60846 4.933063 6.38575 11.669122 26.621986 11.669122 35.215486 0 .777.047 14.7664444.063 18.26644443z" fill="#fff" stroke="#478cbf" stroke-width="4.05191" transform="matrix(.16091166 0 0 -.16091166 29.366862 25.870005)"/><g fill="#414042"><path d="m0 0c0-12.052-9.765-21.815-21.813-21.815-12.042 0-21.81 9.763-21.81 21.815 0 12.044 9.768 21.802 21.81 21.802 12.048 0 21.813-9.758 21.813-21.802" transform="matrix(.16091166 0 0 -.16091166 14.103116 18.464522)"/><path d="m0 0c-3.878 0-7.021 2.858-7.021 6.381v20.081c0 3.52 3.143 6.381 7.021 6.381s7.028-2.861 7.028-6.381v-20.081c0-3.523-3.15-6.381-7.028-6.381" transform="matrix(.16091166 0 0 -.16091166 18.849293 22.294158)"/><path d="m0 0c0-12.052 9.765-21.815 21.815-21.815 12.041 0 21.808 9.763 21.808 21.815 0 12.044-9.767 21.802-21.808 21.802-12.05 0-21.815-9.758-21.815-21.802" transform="matrix(.16091166 0 0 -.16091166 23.59606 18.464522)"/></g><g fill="#cacacb"><path d="m0 0c0-7.994-6.479-14.473-14.479-14.473-7.996 0-14.479 6.479-14.479 14.473s6.483 14.479 14.479 14.479c8 0 14.479-6.485 14.479-14.479" transform="matrix(.16091166 0 0 -.16091166 13.258552 18.672718)"/><path d="m0 0c0-7.994 6.477-14.473 14.471-14.473 8.002 0 14.479 6.479 14.479 14.473s-6.477 14.479-14.479 14.479c-7.994 0-14.471-6.485-14.471-14.479" transform="matrix(.16091166 0 0 -.16091166 24.440839 18.672718)"/></g></svg>