<svg height="165.00806" viewBox="0 0 36.125577 43.658382" width="136.53761" xmlns="http://www.w3.org/2000/svg"><g transform="translate(-87.792264 -182.01122)"><g transform="matrix(.35277778 0 0 -.35277778 -97.386884 361.0207)"><path d="m548.01499 478.21626c-1.58778-1.2215-3.20877-2.39028-4.64648-3.81886-8.89391-4.37406-10.60657-19.35706-12.00241-29.35885h.0615l-.0272-3.56223c4.25-14.92893 19.91666-26.90692 44.62781-26.99358h.0292.0309c24.71117.0867 39.37323 11.81465 44.62323 26.99358l-.089 3.56223h.0601c-2.43675 11.36904-3.04008 23.96255-11.93694 29.35885-1.43728 1.42858-3.05643 2.59736-4.6465 3.81886-19.71303 10.76234-37.11112 9.89717-56.08421 0z" fill="#fff"/><path d="m0 0v-47.514-6.035-5.492c.108-.001.216-.005.323-.015l36.196-3.49c1.896-.183 3.382-1.709 3.514-3.609l1.116-15.978 31.574-2.253 2.175 14.747c.282 1.912 1.922 3.329 3.856 3.329h38.188c1.933 0 3.573-1.417 3.855-3.329l2.175-14.747 31.575 2.253 1.115 15.978c.133 1.9 1.618 3.425 3.514 3.609l36.182 3.49c.107.01.214.014.322.015v4.711l.015.005v54.325h.134c4.795 6.12 7.40503 11.107421 13.487 14.881564-5.651 9.62-9.02043 18.844201-16.68745 27.095487-7.11071-3.579183-16.81955-3.715051-23.11655-7.880051-3.151 3.132-6.7 5.694-10.186 8.372-3.425 2.751-7.285 4.768-10.946 7.118 1.09 8.117 8.13799 3.854868 18.28877 14.630306-12.41134 6.2464-25.64651 10.387892-39.03409 13.362619-11.19137-4.781265-14.90468-7.615925-18.14468-14.853925-3.842.642-7.702.88-11.567.926v.006c-.027 0-.052-.006-.075-.006-.024 0-.049.006-.073.006v-.006c-3.872-.046-7.729-.284-11.572-.926-3.238 7.238-6.400911 9.707265-18.148252 14.853925-13.381013-2.974727-26.617494-7.116219-39.027517-13.362619 11.245654-10.775438 17.197769-6.513306 18.290769-14.630306-3.668-2.35-7.523-4.367-10.949-7.118-3.481-2.678-7.036-5.24-10.188-8.372-6.297 4.165-16.003769 4.300868-23.1165538 7.880051-7.6670144-8.251286-11.0324462-17.475487-16.6854462-27.095487 5.3491846-3.591446 8.693-8.761564 13.487-14.881564z" fill="#478cbf" transform="matrix(.45612755 0 0 .45612755 531.4276 471.96878)"/><path d="m0 0-1.121-16.063c-.135-1.936-1.675-3.477-3.611-3.616l-38.555-2.751c-.094-.007-.188-.01-.281-.01-1.916 0-3.569 1.406-3.852 3.33l-2.211 14.994h-31.459l-2.211-14.994c-.297-2.018-2.101-3.469-4.133-3.32l-38.555 2.751c-1.936.139-3.476 1.68-3.611 3.616l-1.121 16.063-32.547 3.138c.015-3.498 2.94452-16.944652 4.99283-23.663561 9.94032-32.606364 38.67217-35.325439 92.84817-35.515439h.066.067c54.176.19 80.626856 2.907205 92.833169 35.515439 3.139203 8.386142 4.979831 20.163561 4.995831 23.663561z" fill="#478cbf" transform="matrix(.45612755 0 0 .45612755 605.87139 440.04499)"/><path d="m0 0c0-12.052-9.765-21.815-21.813-21.815-12.042 0-21.81 9.763-21.81 21.815 0 12.044 9.768 21.802 21.81 21.802 12.048 0 21.813-9.758 21.813-21.802" fill="#fff" transform="matrix(.45612755 0 0 .45612755 562.60408 461.03691)"/><path d="m0 0c0-7.994-6.479-14.473-14.479-14.473-7.996 0-14.479 6.479-14.479 14.473s6.483 14.479 14.479 14.479c8 0 14.479-6.485 14.479-14.479" fill="#414042" transform="matrix(.45612755 0 0 .45612755 560.21004 460.44675)"/><path d="m0 0c-3.878 0-7.021 2.858-7.021 6.381v20.081c0 3.52 3.143 6.381 7.021 6.381s7.028-2.861 7.028-6.381v-20.081c0-3.523-3.15-6.381-7.028-6.381" fill="#fff" transform="matrix(.45612755 0 0 .45612755 576.05781 450.18125)"/><path d="m0 0c0-12.052 9.765-21.815 21.815-21.815 12.041 0 21.808 9.763 21.808 21.815 0 12.044-9.767 21.802-21.808 21.802-12.05 0-21.815-9.758-21.815-21.802" fill="#fff" transform="matrix(.45612755 0 0 .45612755 589.51321 461.03691)"/><path d="m0 0c0-7.994 6.477-14.473 14.471-14.473 8.002 0 14.479 6.479 14.479 14.473s-6.477 14.479-14.479 14.479c-7.994 0-14.471-6.485-14.471-14.479" fill="#414042" transform="matrix(.45612755 0 0 .45612755 591.90786 460.44675)"/></g><path d="m90.099096 194.49473c3.434571-1.85467 19.509064-4.70724 31.489224 0h.0216c.77158-.98478 1.32926-1.76436 2.30792-2.37167-.90931-1.54797-1.58919-3.0552-2.82291-4.38293-1.14419.57594-2.70646.5978-3.71972 1.268-.50703-.50398-1.07811-.91623-1.63904-1.34716-.55113-.44266-1.0575-.76722-1.64659-1.14537.17539-1.30612 1.35539-.55144 2.98877-2.28533-1.99709-1.00512-4.28744-1.74039-6.44166-2.21905-1.80082.76936-2.39833 1.22549-2.91969 2.39017-.61822-.10331-1.23934-.14161-1.86126-.14901v-.00096c-.004 0-.008.00096-.0121.00096-.004 0-.008-.00096-.0117-.00096v.00096c-.62305.007-1.24368.0457-1.86207.14901-.52103-1.16468-1.02998-1.56202-2.92026-2.39017-2.153174.47866-4.397826 1.16803-6.394746 2.17315 1.80956 1.73389 2.76732 1.07101 2.9432 2.37713-.59023.37815-1.095788.65681-1.647068 1.09947-.56014.43093-1.13218.84318-1.63937 1.34716-1.01326-.6702-2.57519-.69206-3.71972-1.268-1.23372 1.32773-1.890002 2.88086-2.799642 4.42883.86075.57791 1.513562 1.34099 2.284972 2.32577z" fill="#3853a2" stroke="#6780c9" stroke-width=".552"/></g><g transform="translate(-.808046 -2.098617)"><g><path d="m3.0828641 16.712647c12.3976169-5.924826 12.1602219-3.803042 15.7021069-1.313983 4.059564-2.69648 3.990371-4.813602 15.830945 1.314085.749617-1.83044.964591-3.331607.964591-3.331607s-7.674447-6.0943449-16.796873-5.976418c-9.1224264.1179266-16.6550829 5.920652-16.6550829 5.920652s.1984375 1.525972.954313 3.387271z" fill="#fdd20c" stroke="#a78d06" stroke-width=".565"/><path d="m21.855729 15.425519-3.361734-1.606444-3.229168 1.858598.488986-3.693617-2.7655-2.4967833 3.663944-.676337 1.519995-3.4016952 1.775456 3.2756179 3.704908.39442-2.566651 2.7007806z" fill="#fd630c" stroke="#fe9457" transform="matrix(.82873369 .0256855 -.0256855 .82873369 3.806154 1.372787)"/></g><g><path d="m11.874035 22.611384c.63813-4.030884.394036-4.63643.616036-6.96643.29-1.584.361061-2.62314 2.433562-3.260645 1.019712.11978.923874.337933 1.832145.32651 1.933397-.788892 1.77856-2.16592 1.976561-2.9074557.253012-.7616129 1.420292-2.4951545 1.492953-3.3262619.056891-.6535829-1.997315-3.0727041-4.265061-4.2284978-.797246-.4060438-1.743957-.7234306-2.268143-.7016514-.625907.025794-1.565419 1.2110794-2.341868 1.8512093-2.5899813 3.9341711-.378704 3.7865273-3.2934489 9.2381505-3.4066783 6.371715-3.2420945 10.948368-3.597128 13.872722-.2161304 2.496553-1.5606435 6.84274-.7586155 7.756685 1 1 3.8163379 2.048772 5.2926111 1.184267 1.6774153-.982293 1.1984283-2.214103 1.9814693-7.160345z" fill="#659eca" stroke="#244b68" transform="matrix(.0842082 -.85658201 .84658687 .07998477 .237824 45.601636)"/><path d="m20.393711 37.2405c-3.358757-.86902-3.974413-.883359-5.928267-1.259885-2.148264 1.022984-2.204699 2.660644-3.016712 3.862122 5.107341 3.42774 9.174503 3.522531 11.620326 4.06055 1.11844.259533 2.103262 1.530917 2.944533.917016.930794-.776597 2.430857-3.896482 2.193562-5.342709-.286859-1.7483-.639866-.381056-3.082001-1.012916z" fill="#fdd20c" stroke="#a78d06" stroke-width=".855514"/><path d="m11.874035 22.611384c.63813-4.030884.394036-4.63643.616036-6.96643.29-1.584.361061-2.62314 2.433562-3.260645 1.019712.11978.923874.337933 1.832145.32651 1.933397-.788892 1.77856-2.16592 1.976561-2.9074557.253012-.7616129 1.420292-2.4951545 1.492953-3.3262619.056891-.6535829-1.997315-3.0727041-4.265061-4.2284978-.797246-.4060438-1.743957-.7234306-2.268143-.7016514-.625907.025794-1.565419 1.2110794-2.341868 1.8512093-2.5899813 3.9341711-.378704 3.7865273-3.2934489 9.2381505-3.4066783 6.371715-3.2420945 10.948368-3.597128 13.872722-.2161304 2.496553-1.5606435 6.84274-.7586155 7.756685 1 1 3.8163379 2.048772 5.2926111 1.184267 1.6774153-.982293 1.1984283-2.214103 1.9814693-7.160345z" fill="#659eca" stroke="#244b68" transform="matrix(-.0842082 -.85658201 -.84658687 .07998477 38.238528 45.1148)"/><path d="m18.082641 36.753664c3.358757-.86902 3.974413-.883359 5.928267-1.259885 2.148264 1.022984 2.204699 2.660644 3.016712 3.862122-5.107341 3.42774-9.174503 3.522531-11.620326 4.06055-1.11844.259533-2.103262 1.530917-2.944533.917016-.930794-.776597-2.430857-3.896482-2.193562-5.342709.286859-1.7483.639866-.381056 3.082001-1.012916z" fill="#fdd20c" stroke="#a78d06" stroke-width=".855514"/></g></g></svg>