<svg clip-rule="evenodd" fill-rule="evenodd" stroke-linejoin="round" stroke-miterlimit="2" viewBox="0 0 512 489" xmlns="http://www.w3.org/2000/svg"><path d="m32.221 325.595 109.134 10.522 4.253 60.935c.512 7.344 6.354 13.19 13.698 13.717 0 0 64.463 7.547 96.694 7.547 32.239 0 96.739-7.547 96.739-7.547 7.345-.527 13.187-6.373 13.699-13.717l4.252-60.935 109.089-10.522c-33.316 91.34-120.984 156.62-223.779 156.62s-190.463-65.28-223.779-156.62zm-10.954-41.332c-2.223-13.067-3.379-26.48-3.379-40.161 0-131.417 106.694-238.112 238.112-238.112s238.112 106.695 238.112 238.112c0 13.681-1.156 27.094-3.379 40.16l-135.339 13.055c-7.193.698-12.826 6.483-13.331 13.69l-4.229 60.613s-54.564 7.547-81.834 7.547c-27.262 0-81.786-7.547-81.786-7.547l-4.234-60.613c-.501-7.207-6.138-12.996-13.33-13.69l-135.383-13.054zm124.59-105.493c0 60.86 49.311 110.161 110.161 110.161 60.804 0 110.125-49.301 110.125-110.161 0-60.819-49.321-110.095-110.125-110.095-60.85 0-110.161 49.276-110.161 110.095z" fill="#418cbf"/><path d="m172.368 185.304c0 40.368 32.707 73.085 73.075 73.085 40.409 0 73.116-32.717 73.116-73.085s-32.707-73.116-73.116-73.116c-40.368 0-73.075 32.748-73.075 73.116" fill="#414042" fill-rule="nonzero"/></svg>