<svg height="159.49226" viewBox="0 0 42.632249 42.198996" width="161.12976" xmlns="http://www.w3.org/2000/svg"><g stroke-width=".320312" transform="matrix(.16091166 0 0 -.16091166 11.134872 21.919342)"><path d="m0-47.514c-1.4353418-36.09132 0-6.035 0-6.035v-5.492c.108-.001.216-.005.323-.015l36.196-3.49c1.896-.183 3.382-1.709 3.514-3.609l1.116-15.978 31.574-2.253 2.175 14.747c.282 1.912 1.922 3.329 3.856 3.329h38.188c1.933 0 3.573-1.417 3.855-3.329l2.175-14.747 31.575 2.253 1.115 15.978c.133 1.9 1.618 3.425 3.514 3.609l36.182 3.49c.107.01.214.014.322.015v4.711s-.36406-47.02812.015.005c.37906 47.0331201-34.50053 55.13620334-44.67036 90.471216-5.76225 20.02089-13.19357 6.226785-18.77 1.96384-5.57642-4.262943-11.67844 1.605637-34.328664 1.605637-22.949875 0-29.098924-5.629044-34.654521-1.186449-5.555598 4.442596-13.64211 10.899343-15.727111 5.758664-18.292842-45.10197049-46.1090022-55.710588-47.544344-91.801908z" fill="#478cbf"/><path d="m148.40861 42.831622c-4.55238 14.231087-13.31154 14.93074-16.37411 14.589093-8.33095-.929365-8.90732-2.7576-21.29682-7.131578-5.91798-2.089278-6.31159-5.465855-16.141572.158173-14.581557 8.342548-9.972927-5.426851-17.571985.460335-5.555598 4.442599-26.272985 19.052227-33.403822-14.467822-26.894268-44.0622321-46.0747472-61.250773-7.572173-33.0531014 36.977605 27.0808484 19.065526 15.8370934 50.979164 5.881094 12.0506-3.7593885 16.241378 26.9112014 23.995828 18.7591244 25.12112-26.4092855 36.67404-14.651831 43.61879-19.1280854 34.32797-22.1261936 18.0936-2.267694-6.2333 33.9327674z" fill="#d8d7d8"/></g><path d="m0 0-1.121-16.063c-.135-1.936-1.675-3.477-3.611-3.616l-38.555-2.751c-.094-.007-.188-.01-.281-.01-1.916 0-3.569 1.406-3.852 3.33l-2.211 14.994h-31.459l-2.211-14.994c-.297-2.018-2.101-3.469-4.133-3.32l-38.555 2.751c-1.936.139-3.476 1.68-3.611 3.616l-1.121 16.063-32.547 3.138c.015-3.498.06-7.33.06-8.093 0-34.374 43.605-50.896 97.781-51.086h.066.067c54.176.19 97.766 16.712 97.766 51.086 0 .777.047 4.593.063 8.093z" fill="#478cbf" transform="matrix(.16091166 0 0 -.16091166 37.396987 33.181345)"/><path d="m0 0c0-12.052-9.765-21.815-21.813-21.815-12.042 0-21.81 9.763-21.81 21.815 0 12.044 9.768 21.802 21.81 21.802 12.048 0 21.813-9.758 21.813-21.802" fill="#fff" transform="matrix(.16091166 0 0 -.16091166 22.133241 25.775862)"/><path d="m0 0c0-7.994-6.479-14.473-14.479-14.473-7.996 0-14.479 6.479-14.479 14.473s6.483 14.479 14.479 14.479c8 0 14.479-6.485 14.479-14.479" fill="#414042" transform="matrix(.16091166 0 0 -.16091166 21.288677 25.984058)"/><path d="m0 0c-3.878 0-7.021 2.858-7.021 6.381v20.081c0 3.52 3.143 6.381 7.021 6.381s7.028-2.861 7.028-6.381v-20.081c0-3.523-3.15-6.381-7.028-6.381" fill="#fff" transform="matrix(.16091166 0 0 -.16091166 26.879418 29.605498)"/><path d="m0 0c0-12.052 9.765-21.815 21.815-21.815 12.041 0 21.808 9.763 21.808 21.815 0 12.044-9.767 21.802-21.808 21.802-12.05 0-21.815-9.758-21.815-21.802" fill="#fff" transform="matrix(.16091166 0 0 -.16091166 31.626185 25.775862)"/><path d="m0 0c0-7.994 6.477-14.473 14.471-14.473 8.002 0 14.479 6.479 14.479 14.473s-6.477 14.479-14.479 14.479c-7.994 0-14.471-6.485-14.471-14.479" fill="#414042" transform="matrix(.16091166 0 0 -.16091166 32.470964 25.984058)"/><path d="m7.9552911 13.275196c1.4817296-4.3399801 10.3412389-5.9319579 19.7910459-3.5550166 5.667993 1.4250316 10.299657 4.1894136 13.324857 6.9229276-1.372741-3.625576-8.028556-8.7939892-17.192979-10.565513-10.362028-2.0033587-20.5823083-.242545-21.8473222 4.355731-.9134816 3.321921 3.0982762 7.213351 9.3023892 9.874417-2.7870627-2.256614-4.1427954-4.791682-3.3779909-7.032546z" fill="#ac162c" stroke-width=".062998" transform="translate(0 .313284)"/><g stroke-width=".987237" transform="translate(8.943094 8.369771)"><path d="m24.37351 11.770177c-.789315-.718757-1.114402-1.9746484-1.157343-3.3053952.176869-1.5890837-3.696482-3.4517669-3.696482-3.4517669l-1.957951.3012356s3.034926.5266652 3.644292 3.1690971c.303656 1.3164516-.307844 3.3165434-.41109 4.1163304-.139042 1.066697.283249 1.249736.502093 2.264005.146572 1.318041-.389975 2.30935-.540011 3.438008-.431311 1.365277-.587267 3.502193.166476 2.28122.431463-.758793.369986-1.170704.993668-2.775991.05744-1.399151.486001-3.555365.391267-4.923264-.383594-2.132566.03041-2.067068.127737-2.932928.07566.01148.6123.84523.683865.957716.959039 1.488988.781137 2.883607 1.304622 2.460361.419195-.339353.504056-1.092436-.05113-1.598616z" fill="#ffac33"/><path d="m17.263187 3.6355565s-3.614854-1.0775988-6.264097.8762043c-1.151565.9179064-1.5827101 2.2378441-2.4291433 4.4268646-.733182 2.6240726-2.7399582 3.2996296-3.9286632 4.8781386-.3353444.484254.084894 1.008968-.2013834 1.453188-.5991452.932285-1.5659117 2.415163-1.6190772 2.828875-.1277887.993296 2.9985909-2.276016 2.9985909-2.276016l2.9997871-4.857955c-.1093926 2.193446 1.6708731 2.666398 2.5839151 2.45287.485705-.972955-1.6564241-.845945-1.8002934-3.9278572.175151-2.5401057 1.5116684-1.4616492 1.7725684-3.6455943 1.777859-2.5359324 5.468618-1.8388549 5.468618-1.8388549l2.29433.8217091.426355-1.0161737z" fill="#ffac33"/><path d="m26.943329 7.9017575c-1.032464-2.0167096-2.400587-3.5789039-3.832871-3.8677384-.84146-.2507234-.867549.9918779-.867549.9918779s2.008846-1.7672935 3.346804 4.4756029c.70139 2.5375931 2.959308 2.4461361 3.551297 4.0028081 1.981467 5.213368 4.226365 5.499449 2.975936 3.863658-1.250433-1.635792-4.302802-7.7652469-5.173617-9.4662085zm-9.278619.9761546c-.437814-1.0001368-.28834-1.5249823.28806-1.8972302 1.234381-.7971814 1.803085-1.9447887 1.803085-1.9447887s-2.977308-.280267-3.067287.029543c-.894623 3.0685354-1.285483 3.6189581-1.942903 5.5664668-1.918081 5.679511 1.237136 9.407707 1.731994 8.221851.3967-.953256-.414182-2.677935-.88551-4.228886-.471341-1.550951-.07353-2.801393.02563-3.437216.03477-.222118.408884-1.3967642 1.133787-2.4367686.763899 1.2432461 1.082347 2.4620526 1.216761 3.6731456.117593 1.085765 1.159438 1.575735 1.734038 1.191572.574606-.384162-.19221-2.30879-1.441623-3.551838-.295468-.2955075-.400795-.9055954-.596079-1.185855z" fill="#e95f28"/><path d="m23.366066 4.1417376s.607321 1.1019652-1.671673 1.0819477c-.597099-.00468-.880311.4880658-1.661447.5490769-.650265.050512-1.542845-.2316283-2.278995-.2316283-.736147 0-1.584767.4680483-2.235032.4175252-.783178-.060997-1.696207-.7950156-2.281037-.9141731-1.085819-.2211438-1.832192-.2755112-1.832192-.6158054 0-.3403266 1.234071-.7521198 2.321933-.9732781.58381-.1191475 1.081735.2716921 1.862866.2106594.650266-.050512 1.319955-.09627 2.056106-.09627.736148 0 1.446739-.4108528 2.097005-.3593858.783179.060996 1.434465.4118076 2.023385.5099929.69832.1172373 1.112403.2326009 1.343473.3136293.189157.065788.255624.1077254.255624.1077254z" fill="#e95f28"/><path d="m24.9631-1.7865766s-3.532496-1.3011974-6.915712-1.3011974c-3.383217 0-7.557797 1.7978448-7.557797 1.7978448 3.322896 2.634806 3.188956 5.430712 3.188956 5.430712h7.860437c0 .0009548 1.188063-3.86260215 3.424116-5.9273594z" fill="#ffac33"/><path d="m21.538984 4.1417376s-.05727.2001752-.408972.2974165c-.09306.025579-.313897-.045756-.463159 0-.177912.054331-.496902.1916004-.655378.20875-.169719.019096-.558248-.089602-.750465-.074364-.351729.026661-.530639.1515728-.942678.1639666-.279117.00756-.409992-.093422-.708546-.093422-.111434 0-.348636-.092485-.536774-.084847-.3098.011532-.596075.1239379-.766819.1191473-.463163-.013335-.557223-.2059048-.94268-.2383307-.373177-.030624-.63902.134423-.910985.089603-.513261-.0848456-.772958-.3870225-.772958-.3870225 0-.2773846 1.759601-.5023691 3.930216-.5023691 2.17062 0 3.929198.5014143 3.929198.5014143z" fill="#ffac33"/><path d="m16.389008 4.6727027s-.07156-.5481256-.307753-1.3031061c-.628795-2.0085146-.607324-3.45842031-.607324-3.45842031l-1.42731.63582318s.745351 1.33074833 1.334269 3.90168433c0 0 .204499.00468.438625.1229661.234138.1182104.56949.101061.569493.101061zm1.736082.06006c.0043-.2173249.01006-.6815829.07565-1.1572584.06442-.469003.328196-1.5986125.426357-2.1543622.166666-.94849187.119644-1.61672567.340481-1.98563688l-2.278997.0791184s.481567.88748316.596076 1.94655308c.08997.8255217.001 2.1343445.199359 3.1714908 0 0 .06442.016212.152331.022699.04398.00285.143136.00285.196307.011532.160524.024861.292412.065788.292412.065788zm2.261617-.1906641s.47236-1.3869915.633904-2.3316712c.262772-1.53760556 1.752443-3.7987342 2.153235-4.1752711l-2.891428-.089607s.07056 2.01232815-.05931 3.3278244c-.09816.9942482-.611412 1.8979354-.530642 3.3392619 0 0 .136994.047666.317956.035309.158474-.011532.376266-.1058172.376266-.1058172z" fill="#e95f28"/><path d="m29.915743-6.4260843c-.04603 0-.08996.00954-.134975.0124-.19735-.4251532-.649242-.7244762-1.178859-.7244762-.240283 0-.452939.078167-.645153.1849317-.458051-.6863459-1.268833-1.1477228-2.200269-1.1477228-.832255 0-1.56534.3717707-2.040768.9389593-.504059-.3202947-1.112405-.5090398-1.767783-.5090398-1.179882 0-2.196176.6138984-2.733971 1.5109143-.270963-.583394-.893603-.9923419-1.618506-.9923419-.562338 0-1.058216.2507054-1.381303.6329635-.398744-1.0733689-1.481497-1.8502744-2.768738-1.8502744-1.037766 0-1.944658.5033204-2.468144 1.2602076-.144176-.020033-.289358-.040989-.439645-.040989-.819984 0-1.5602258.3145733-2.0939312.8188488-.069524-.00475-.1349467-.019059-.2055046-.019059-.034775 0-.067471.00856-.1012071.00954-.314902-.3793966-.8005621-.6262904-1.352675-.6262904-.5377978 0-1.0122031.2354544-1.3260929.5967397-.173816-.047664-.3547804-.080075-.5459738-.080075-1.0837746 0-1.9630644.8198018-1.9630644 1.8312087 0 1.0114071.8792898 1.831209 1.9640879 1.831209.05622 0 .1083894-.011452.1635756-.015241.2218493.2583326.5480198.4346857.9304074.4346857.04703 0 .086902-.020033.1318832-.024787.48361.5910201 1.239184.978043 2.0970053.978043.1942585 0 .3823723-.021941.5643804-.059102.3578337.2650051.7749996.4623302 1.2402042.54907683.658445 1.06860226 1.880247 1.79689128 3.296312 1.79689128 1.340404 0 2.514155-.64726222 3.195091-1.62149203.564381.64535592 1.412997 1.06574284 2.375102 1.06574284 1.423221 0 2.60924-.90559538 2.961976-2.12862572.02668.0009529.05113.00764.07771.00764.375225 0 .730015-.071495 1.064347-.1839768.527574.3841627 1.182951.6224775 1.904786.6224775 1.085821 0 2.039747-.5204789 2.595947-1.3059639.198354.132502.428401.2268762.691161.2268762.492815 0 .913029-.2773991 1.102179-.6710936.192209.063869.395682.1048581.610394.1048581 1.010159 0 1.829123-.7635597 1.829123-1.7053791 0-.9418191-.818964-1.7082385-1.829123-1.7082385z" fill="#ccd6dd"/><g fill="#aab8c2"><ellipse cx="13.429068" cy="-3.886603" rx="2.069396" ry="1.929395"/><ellipse cx="10.873001" cy="-4.044846" rx="2.045881" ry="1.90747"/><ellipse cx="8.862907" cy="-3.958098" rx="1.134896" ry="1.058117"/><ellipse cx="23.04912" cy="-4.872273" rx="1.134896" ry="1.058117"/><ellipse cx="25.655277" cy="-5.236418" rx="1.528532" ry="1.425121"/><ellipse cx="15.193789" cy="-4.306037" rx="1.668604" ry="1.555717"/><ellipse cx="24.987637" cy="-4.401365" rx="1.824014" ry="1.700613"/><ellipse cx="16.671206" cy="-3.755054" rx="1.566361" ry="1.460392"/><ellipse cx="13.381027" cy="-5.003823" rx="1.73813" ry="1.620539"/><ellipse cx="13.339103" cy="-3.342295" rx="2.924147" ry="2.726319"/></g></g><g transform="translate(8.943094 11.08175)"><g stroke="#414042" stroke-width="1.1"><path d="m-5.0430912 21.655845c.1217457.45453-.1475943.92175-.6021214 1.043962l-.1701562.0456c-.4545291.121752-.9217496-.147588-1.04349-.602118l-1.5060098-5.618863c-.121266-.45453.1485358-.922221.6030613-1.043961l.1696764-.04559c.4545291-.122207.9217496.147594 1.043959.602121zm2.1405637-1.090493c.1264357.470041-.152764.953242-.6228021 1.079213l-.1137511.03056c-.470042.125973-.9532441-.153226-1.0792144-.623274l-1.8552492-6.924168c-.1264357-.470039.1527639-.953242.6228038-1.079212l.1137511-.03056c.47004-.125973.9532423.153226 1.0796833.623276zm2.34738366.565928c-.084617.479442-.54148656.799539-1.02092786.714932l-.1156343-.02067c-.4794415-.08462-.7995386-.541493-.7149313-1.020933l1.2446679-7.058599c.084616-.479442.54148656-.79954 1.02092796-.714932l.11563429.02021c.4794413.08462.7995384.541955.7154001 1.021396zm2.30413784.46581c-.078967.447479-.5048226.746424-.95277145.667458l-.2312599-.0409c-.4474797-.07896-.74595479-.505292-.6674587-.952772l1.18403295-6.711706c.078967-.447009.5052935-.746424.9523026-.667456l.2317289.0409c.4474798.07896.7459548.505766.6669879.952774zm1.5704055 3.969962c-.2453602.424448-.7882574.570159-1.2131752.324799l-.089768-.05217c-.4249163-.245367-.5706292-.788264-.324798-1.212712l2.6364569-4.567853c.2453611-.424446.7887286-.570629 1.2136446-.325267l.089767.05217c.4249184.244889.5701605.788726.3247994 1.213174z" fill="#478cbf"/><path d="m-7.3712015 20.231152c.1880157.701772-.086019 2.43716-.086019 3.757034 0 1.319873.9988368 5.640486 5.6404862 5.640486 4.6416495 0 4.9354255-3.870313 5.6404863-5.01345.7050605-1.14314-.3915448-2.996509-.9400822-2.056428-.5485359.94008-1.3790981.546656-1.0966048-1.116347.2824951-1.663004-1.46652635-2.568301-1.70906735-1.195783-.2058768 1.16429-.67591679.823981-.40141419-.429146.27403339-1.253599-1.65172266-1.607539-1.96335826.0973-.2289096 1.253599-.6824988.419277-.8700454-.299415s-2.1076623-.782147-1.8571306.333258c.3577011 1.592028-.00231 1.911656-.5236253-.03337-.3309074-1.233855-1.8336271.315868-1.8336271.315868z" fill="#478cbf"/><path d="m2.159339 23.055157c.010839-.000942.021621-.0038.032439-.0052-.1828442-.03196-.3351374-.206349-.4103451-.519866-.90106715.11658-2.15560544.335139-3.1281194 1.286031-1.2014236 1.174631-1.4063606 2.44421-1.3964903 3.293573.00799.68485.3816736 1.009178.4911931-.0057.141483-1.313763 1.103654-3.779126 4.4113294-4.048928z" fill="#414042"/></g><g stroke-width=".47004"><path d="m-5.0430912 21.655845c.1217457.45453-.1475943.92175-.6021214 1.043962l-.1701562.0456c-.4545291.121752-.9217496-.147588-1.04349-.602118l-1.5060098-5.618863c-.121266-.45453.1485358-.922221.6030613-1.043961l.1696764-.04559c.4545291-.122207.9217496.147594 1.043959.602121zm2.1405637-1.090493c.1264357.470041-.152764.953242-.6228021 1.079213l-.1137511.03056c-.470042.125973-.9532441-.153226-1.0792144-.623274l-1.8552492-6.924168c-.1264357-.470039.1527639-.953242.6228038-1.079212l.1137511-.03056c.47004-.125973.9532423.153226 1.0796833.623276zm2.34738366.565928c-.084617.479442-.54148656.799539-1.02092786.714932l-.1156343-.02067c-.4794415-.08462-.7995386-.541493-.7149313-1.020933l1.2446679-7.058599c.084616-.479442.54148656-.79954 1.02092796-.714932l.11563429.02021c.4794413.08462.7995384.541955.7154001 1.021396zm2.30413784.46581c-.078967.447479-.5048226.746424-.95277145.667458l-.2312599-.0409c-.4474797-.07896-.74595479-.505292-.6674587-.952772l1.18403295-6.711706c.078967-.447009.5052935-.746424.9523026-.667456l.2317289.0409c.4474798.07896.7459548.505766.6669879.952774zm1.5704055 3.969962c-.2453602.424448-.7882574.570159-1.2131752.324799l-.089768-.05217c-.4249163-.245367-.5706292-.788264-.324798-1.212712l2.6364569-4.567853c.2453611-.424446.7887286-.570629 1.2136446-.325267l.089767.05217c.4249184.244889.5701605.788726.3247994 1.213174z" fill="#478cbf"/><path d="m-7.3712015 20.231152c.1880157.701772-.086019 2.43716-.086019 3.757034 0 1.319873.9988368 5.640486 5.6404862 5.640486 4.6416495 0 4.9354255-3.870313 5.6404863-5.01345.7050605-1.14314-.3915448-2.996509-.9400822-2.056428-.5485359.94008-1.3790981.546656-1.0966048-1.116347.2824951-1.663004-1.46652635-2.568301-1.70906735-1.195783-.2058768 1.16429-.67591679.823981-.40141419-.429146.27403339-1.253599-1.65172266-1.607539-1.96335826.0973-.2289096 1.253599-.6824988.419277-.8700454-.299415s-2.1076623-.782147-1.8571306.333258c.3577011 1.592028-.00231 1.911656-.5236253-.03337-.3309074-1.233855-1.8336271.315868-1.8336271.315868z" fill="#478cbf"/><path d="m2.159339 23.055157c.010839-.000942.021621-.0038.032439-.0052-.1828442-.03196-.3351374-.206349-.4103451-.519866-.90106715.11658-2.15560544.335139-3.1281194 1.286031-1.2014236 1.174631-1.4063606 2.44421-1.3964903 3.293573.00799.68485.3816736 1.009178.4911931-.0057.141483-1.313763 1.103654-3.779126 4.4113294-4.048928z" fill="#414042"/></g></g></svg>