<svg height="152.7417" viewBox="0 0 40.271835 40.41291" width="152.20851" xmlns="http://www.w3.org/2000/svg" xmlns:xlink="http://www.w3.org/1999/xlink"><filter id="a" color-interpolation-filters="sRGB" height="1.000076" width="1.00005" x="-.000025" y="-.000038"><feGaussianBlur stdDeviation=".0033006876"/></filter><path d="m42.166677 971.65291h-50.5799999l-66.0100001-204.03 46.01-20.65375 45.44 143.45h.57l46-143.45 46.290003 20.65375z" fill="#ac162c" filter="url(#a)" transform="matrix(.05204234 0 0 .05204234 18.231804 -10.18197)"/><g fill="#ac162c" transform="matrix(.71311381 0 0 .71311381 -66.156224 -127.10911)"><path d="m128.14527 234.94259h-3.93947v-10.48393c.96215.53601 3.16144 2.38289 3.93947 3.33167z" stroke-width=".07424"/><path d="m778.9188 385.06-56.2-85.43411-.1-5.72 51.15-56.57589h67.38594l-57.29177 58.03825 60.44823 89.69175z" transform="matrix(.07423982 0 0 .07423982 73.391091 206.35581)"/></g><path d="m0 0v-47.514-6.035-5.492c.108-.001.216-.005.323-.015l23.697197-3.49c1.896-.183 3.382-1.709 3.514-3.609l1.116-15.978 31.574-2.253 2.175 14.747c.281996 1.912001 1.922 3.329 3.856 3.329h38.188003c1.933 0 3.53628-1.422777 3.855-3.329l2.175-14.747 31.575 2.253 1.115 15.978c.133 1.9 1.618 3.425 3.514 3.609l48.6808 3.49c.107.01.214.014.322.015v4.711l.015.005v54.325h.134c4.795 6.12 9.232 12.569 13.487 19.449-5.651 9.62-12.575 18.217-19.976 26.182-6.864-3.455-13.531-7.369-19.828-11.534-3.151 3.132-6.7 5.694-10.186 8.372-3.425 2.751-7.285 4.768-10.946 7.118 1.09 8.117 1.629 16.108 1.846 24.448-9.446 4.754-19.519 7.906-29.708 10.17-4.068-6.837-7.788-14.241-11.028-21.479-3.842.642-7.702.88-11.567.926v.006c-.027 0-.052-.006-.075-.006-.024 0-.049.006-.073.006v-.006c-3.872-.046-7.729-.284-11.572-.926-3.238 7.238-6.956 14.642-11.03 21.479-10.184-2.264-20.258-5.416-29.703-10.17.216-8.34.755-16.331 1.848-24.448-3.668-2.35-7.523-4.367-10.949-7.118-3.481-2.678-7.036-5.24-10.188-8.372-6.297 4.165-12.962 8.079-19.828 11.534-7.401-7.965-14.321-16.562-19.974-26.182 4.253-6.88 8.693-13.329 13.487-19.449z" fill="#478cbf" transform="matrix(.16091166 0 0 -.16091166 6.590449 13.549572)"/><path d="m-12.498803 0-1.121-16.063c-.135-1.936-1.675-3.477-3.611-3.616l-38.555-2.751c-.094-.007-.188-.01-.281-.01-1.916 0-3.569 1.406-3.852 3.33l-2.211 14.994h-31.459l-2.211-14.994c-.297-2.018-2.101-3.469-4.133-3.32l-38.554997 2.751c-1.936.139-3.476 1.68-3.611 3.616l-1.121 16.063-20.0482 3.138c.015-3.498.06-7.33.06-8.093 0-34.374 43.605-50.896 97.781-51.086h.066.067c54.176.19 97.766 16.712 97.766 51.086 0 .777.047 4.593.063 8.093z" fill="#478cbf" transform="matrix(.16091166 0 0 -.16091166 32.852564 24.811575)"/><path d="m-12.498803 0c0-12.052-9.765-21.815-21.813-21.815-12.042 0-21.81 9.763-21.81 21.815 0 12.044 9.768 21.802 21.81 21.802 12.048 0 21.813-9.758 21.813-21.802" fill="#fff" transform="matrix(.16091166 0 0 -.16091166 17.588818 17.406092)"/><path d="m-12.498803 0c0-7.994-6.479-14.473-14.479-14.473-7.996 0-14.479 6.479-14.479 14.473s6.483 14.479 14.479 14.479c8 0 14.479-6.485 14.479-14.479" fill="#ac162c" transform="matrix(.16091166 0 0 -.16091166 16.744254 17.614288)"/><path d="m-12.498803 0c-3.878 0-7.021 2.858-7.021 6.381v20.081c0 3.52 3.143 6.381 7.021 6.381s7.028-2.861 7.028-6.381v-20.081c0-3.523-3.15-6.381-7.028-6.381" fill="#fff" transform="matrix(.16091166 0 0 -.16091166 22.334995 21.235728)"/><path d="m-12.498803 0c0-12.052 9.765-21.815 21.815-21.815 12.041 0 21.808 9.763 21.808 21.815 0 12.044-9.767 21.802-21.808 21.802-12.05 0-21.815-9.758-21.815-21.802" fill="#fff" transform="matrix(.16091166 0 0 -.16091166 27.081762 17.406092)"/><path d="m-12.498803 0c0-7.994 6.477-14.473 14.471-14.473 8.002 0 14.479 6.479 14.479 14.473s-6.477 14.479-14.479 14.479c-7.994 0-14.471-6.485-14.471-14.479" fill="#ac162c" transform="matrix(.16091166 0 0 -.16091166 27.926541 17.614288)"/><g transform="translate(-83.498516 -180.97103)"><path d="m42.802177 965.93341h-50.5799997l-66.0100003-204.03h46.01l45.44 143.45h.57l46-143.45h46.290003z" fill="#fff" filter="url(#a)" transform="matrix(.04033612 0 0 .04033612 101.91483 181.94931)"/><path d="m89.372115 192.01504c1.694886-3.95277 11.110865-4.35885 20.525055-1.21037 5.64668 1.88787 9.50131 3.69383 12.32817 6.46803-1.05673-3.39458-6.60797-8.78773-15.78841-11.3633-10.380114-2.91245-20.972335-2.43912-22.698473 1.54165-1.246603 2.87588 1.494678 5.71763 7.571116 8.77014-1.892487-2.46179-2.319426-2.99965-1.937458-4.20615z" fill="#ac162c" stroke-width=".060545"/></g><g fill="#fff"><g transform="matrix(.62355647 0 0 .62355647 -54.531416 -106.55938)"><path d="m127.14814 234.94259h-3.01191s0-7.34751 0-9.62593c.96215.53601 2.23388 1.52489 3.01191 2.47367z" stroke-width=".07424"/><path d="m730.74 290.47 51.15-53.14h48.02l-55.73 54.29 62.01 93.44h-49.15l-56.2-88.87z" transform="matrix(.07423982 0 0 .07423982 73.391091 206.35581)"/></g><path d="m24.754815 35.74912v-4.039117h-1.872379v2.426732c.798495.603737 1.431846 1.019973 1.872379 1.612385z" stroke-width=".042443"/></g><path d="m7.1517149 23.049957v-9.500386l1.9909646-.102597-.5688872 9.107778-1.4220774.495202" fill="#478cbf" transform="translate(-.561266)"/></svg>